$MeshFormat
2.2 0 8
$EndMeshFormat
$PhysicalNames
5
1 1 "Dirichlet BC1"
1 2 "Dirichlet BC2"
1 3 "Dirichlet BC3"
1 4 "Forces"
2 5 "Bulk material"
$EndPhysicalNames
$Nodes
356
1 0 0 0
2 2 0 0
3 2 2 0
4 0.2 2 0
5 0 2 0
6 0.2857142857137332 0 0
7 0.5714285714271847 0 0
8 0.8571428571406363 0 0
9 1.142857142854881 0 0
10 1.42857142856992 0 0
11 1.71428571428496 0 0
12 2 0.2851452718771487 0
13 2 0.5431879037485708 0
14 2 0.7767040030391621 0
15 2 0.9880248133713389 0
16 2 1.17925989303873 0
17 2 1.352318361391372 0
18 2 1.508927905844833 0
19 2 1.650651952090272 0
20 2 1.778905362104853 0
21 2 1.894968486583158 0
22 1.902913421777892 2 0
23 1.809317879492224 2 0
24 1.71908784833163 2 0
25 1.632102303106561 2 0
26 1.548244579065605 2 0
27 1.467402217626273 2 0
28 1.389466791578974 2 0
29 1.314333759238433 2 0
30 1.241902354971119 2 0
31 1.172075440153481 2 0
32 1.104759371527432 2 0
33 1.039863846770499 2 0
34 0.9773018371773092 2 0
35 0.9169894352650096 2 0
36 0.8588457376833214 2 0
37 0.8027927766613381 2 0
38 0.7487553648311114 2 0
39 0.6966610272047795 2 0
40 0.6464398968212628 2 0
41 0.5980246188780407 2 0
42 0.5513502546828355 2 0
43 0.5063542139443971 2 0
44 0.462976136630068 2 0
45 0.4211578513008203 2 0
46 0.3808432606302503 2 0
47 0.3419783084422789 2 0
48 0.3045108621869992 2 0
49 0.2683906669620229 2 0
50 0.2335692820303557 2 0
51 0.1666666666667587 2 0
52 0.1333333333335174 2 0
53 0.1000000000002736 2 0
54 0.06666666666685248 2 0
55 0.03333333333342353 2 0
56 0 1.965506773857352 0
57 0 1.926254428909532 0
58 0 1.881586321743391 0
59 0 1.830755221496532 0
60 0 1.772910812707032 0
61 0 1.7070854386154 0
62 0 1.632177952378907 0
63 0 1.546935270043736 0
64 0 1.449931409628556 0
65 0 1.33954363777935 0
66 0 1.21392534613743 0
67 0 1.070975133581586 0
68 0 0.9083016888962003 0
69 0 0.723183717791644 0
70 0 0.5125244662896582 0
71 0 0.2727999241347012 0
72 0.9534000283780981 1.946699599017469 0
73 1.21198526316119 1.928695728110631 0
74 0.675094170261435 1.959012622857591 0
75 0.4875529234421054 1.963858145920256 0
76 0.1224454767860083 0.9940762519433122 0
77 0.3245141699817734 1.965576087634364 0
78 0.08974448988010493 1.395881621975474 0
79 1.844167365612782 1.07002349920183 0
80 1.42552093642434 1.92877540430952 0
81 0.2145518969157569 1.972056803760575 0
82 0.05954019864333189 1.671506214059281 0
83 1.006221404021606 0.2293885753100909 0
84 1.88365292557264 1.577998216619785 0
85 0.04564619426075352 1.856161195762018 0
86 0.1528559644120259 0.636386267964332 0
87 1.59031371104204 1.932050945941093 0
88 1.066422220549016 1.94000306654174 0
89 0.7738523358028336 1.945192428478746 0
90 0.5702490147068069 1.958268457750344 0
91 0.4010005559655352 1.965714252212232 0
92 0.1497899149296545 1.966721810733728 0
93 1.809362962537483 0.644785711719704 0
94 1.764248616041923 1.92370215258173 0
95 0.08333333333356305 1.97113248654052 0
96 0.4257141685688789 0.246290782964843 0
97 1.573881445192676 0.2635933104873022 0
98 1.915297960234392 1.846867098241602 0
99 0.02915267847990737 1.945931793315737 0
100 0.05328051891940679 1.740440913296702 0
101 0.114600562218308 1.712518289446779 0
102 0.1240422086602718 1.640734028058376 0
103 0.1805109244494659 1.6842917933484 0
104 0.1924993911431619 1.610740827443449 0
105 0.2524960384661649 1.656470636893542 0
106 0.2655243024107924 1.577100812656979 0
107 0.3285993696765885 1.62645334694351 0
108 0.3432755545116468 1.542901151141497 0
109 0.4146262202043132 1.596052484208882 0
110 0.4275393315301582 1.503925968984279 0
111 0.5089046519097054 1.557442506193452 0
112 0.518416611755111 1.461735687306142 0
113 0.6022273590077987 1.523555634893842 0
114 0.6143800428844234 1.418318543597665 0
115 0.703752966993839 1.484603601807755 0
116 0.7139790865697797 1.371469952078549 0
117 0.8068844709204763 1.440223615425204 0
118 0.8175306065202587 1.312864221458872 0
119 0.9124022367985016 1.391061608439633 0
120 0.9399242274144715 1.265164533262538 0
121 1.04241687024249 1.365659839599714 0
122 0.8272641689106393 1.163738412840206 0
123 1.067685315420452 1.212919216344233 0
124 1.177433002353837 1.300522592155322 0
125 1.163412882913568 1.436492969594848 0
126 1.286274375581343 1.384580004876875 0
127 1.197358148984198 1.152065376012693 0
128 0.7942798694830497 1.546306694701815 0
129 0.521418111992574 1.36025033144564 0
130 0.5927583193595674 1.614890380839623 0
131 0.3098432750485542 1.702927676960371 0
132 1.262036292869525 1.513023864753797 0
133 1.151308364352039 1.56081156515991 0
134 0.1675497373104138 1.746785028690672 0
135 1.384912048943417 1.467465996448224 0
136 1.087755214126952 1.059853700631753 0
137 1.225536471936358 0.9907473610943294 0
138 1.411177344277668 1.336577967680128 0
139 0.3454601042270913 1.43479625166888 0
140 1.239889487160712 1.631084793029803 0
141 1.096842392599434 0.8884142215115329 0
142 1.253753572629084 0.8149373593230448 0
143 1.137839489642635 1.675777828727247 0
144 1.515704434081008 1.417722194904036 0
145 1.487079145057698 1.554593721250843 0
146 1.379263373954668 0.9271299885690152 0
147 1.052274063593237 1.608644538450214 0
148 1.039042045378787 1.712421495797761 0
149 1.210610823552198 1.748946886383507 0
150 1.31957909720564 1.70366704545861 0
151 1.542123867257203 1.28356091395469 0
152 1.649487516072441 1.378371678666431 0
153 1.101438461684474 0.7040035254775177 0
154 0.9269593526315946 0.8148655267141459 0
155 1.447437089094399 0.7120635565587295 0
156 1.297501061467745 1.802375245933074 0
157 1.394057408029986 1.770304155307654 0
158 0.9602569804252955 1.654718873563817 0
159 0.9511292999400515 1.751567146139173 0
160 0.8762090101694896 1.697610041016342 0
161 0.8684313789814684 1.785410273349111 0
162 0.798044461703463 1.736482285319262 0
163 0.7891025644327027 1.816167307090317 0
164 0.7251972431538165 1.772252984574494 0
165 0.1301503900443739 1.56382306689242 0
166 1.025176373510374 1.804465392412604 0
167 0.7187579338559478 1.845215993399207 0
168 0.6578588448943414 1.805664049225825 0
169 0.8545873293548876 1.866809686761004 0
170 0.7281761004935936 1.690959826358854 0
171 1.575099242322496 0.8753611944771982 0
172 0.9349938646687265 0.5942055561484376 0
173 0.7568460765323815 0.6831067643928952 0
174 0.733951427727028 0.8804549677520479 0
175 0.5814249624730075 0.7703489858504677 0
176 0.5672463513161784 0.953464687096597 0
177 0.4203880338186756 0.8571897713345584 0
178 0.4199100205390142 1.031998682296108 0
179 0.5527761012454735 1.11324268955615 0
180 0.747060136624178 0.4810232791262006 0
181 0.4119479875692068 1.177966772682544 0
182 1.436766749709337 1.193078267890396 0
183 1.587893794985227 1.148237628144656 0
184 0.434422132119707 0.6691206256791691 0
185 0.6535890901006725 1.870247276469559 0
186 0.5944093555576276 1.834847206586012 0
187 0.5988869976367488 1.766871449036073 0
188 0.5372505805981297 1.799322662489235 0
189 0.532530908248227 1.863435064925767 0
190 0.4774703864320168 1.830827778795733 0
191 0.4793612558972482 1.763506268825338 0
192 0.4215490753735615 1.798575521923441 0
193 0.4225860615896882 1.860745426220115 0
194 0.3686774471631796 1.832063706987083 0
195 0.3670308924119 1.894221145735868 0
196 0.3168429713834113 1.863483634463215 0
197 0.4266403901044327 1.726407151104858 0
198 0.3149325306698649 1.806817120094227 0
199 0.2683524794829167 1.8382082436206 0
200 0.269812502783743 1.891640036026736 0
201 0.2236688485925525 1.869035071701701 0
202 0.2585734879149673 1.786791271979996 0
203 0.4817963656608296 1.693199297118846 0
204 0.9683077144666397 1.555073510770377 0
205 0.2911846512818489 1.113449034787934 0
206 0.2846571716623809 1.252573432063105 0
207 0.1800335357796163 1.196526247469566 0
208 1.219070845272953 1.844725327441539 0
209 1.133357812570075 0.4713072367695049 0
210 0.9381554751941634 1.831934663553948 0
211 0.7048664482921967 1.053676775837497 0
212 0.856738286142716 1.003360773531012 0
213 0.2280327711052143 1.914819520567684 0
214 0.1835488544893712 1.896196746951706 0
215 0.1788656398217605 1.849282244449028 0
216 0.1396732152726084 1.877447120632515 0
217 0.127191320671981 1.83125541511188 0
218 0.2633421282760249 1.935692672449455 0
219 0.3112050870961445 1.91777985715031 0
220 1.110029977332855 1.769963163906578 0
221 1.426391415444631 1.667959867151752 0
222 1.494962960971199 1.740949855352143 0
223 1.095112769964413 1.860266609321989 0
224 1.838988324924787 1.2507041750335 0
225 1.470898808956757 1.841956754754379 0
226 1.567394125369455 1.801956981704731 0
227 1.593521365805793 1.708988349870111 0
228 1.663315603760323 1.776337981769648 0
229 1.695465054629363 1.679512634687438 0
230 1.763354170452943 1.752653016682252 0
231 1.000665870247254 1.889563084513319 0
232 1.864276925715942 1.424170168646051 0
233 1.746992602780733 1.520719166972098 0
234 1.609523360640639 1.599348222732992 0
235 1.287444113933227 1.888124223932479 0
236 0.1463842282450742 1.923627733523897 0
237 0.1029395402975034 1.910197241072273 0
238 1.2946695093661 0.2422655288662336 0
239 1.388291213020478 0.4787453352429954 0
240 1.371220434036793 1.861382637330474 0
241 0.5916332603615078 1.904240338634623 0
242 0.4743444825819791 1.88942287528084 0
243 0.6982969164487304 1.596715108589864 0
244 1.799541268173992 0.8683371013115824 0
245 1.881524420671328 1.728530368533787 0
246 0.04481455223394784 1.803362231592763 0
247 0.1001683312155629 1.780553771048984 0
248 0.215814695642992 0.4160114176930728 0
249 0.1385099527800133 0.8312684456077607 0
250 0.03344918541068799 1.907622119403551 0
251 1.798643942497311 0.4142107276583324 0
252 0.4213108207445718 1.919645637773338 0
253 0.09383111486881046 1.862291664770143 0
254 0.5210543402234924 1.925049074634401 0
255 0.3961451908772568 1.321169730151568 0
256 0.1897563888076279 1.941736643542715 0
257 0.1166666666668724 1.95055361201418 0
258 0.6825441696673277 1.223577124900925 0
259 0.08842020011503918 1.272188875942467 0
260 0.1894650281613823 1.344806162433476 0
261 0.1718591630022419 1.463631017752769 0
262 0.7790010509998835 1.881748060169348 0
263 0.2664317494767092 0.9528032340950128 0
264 0.7097963670310548 1.911884174495957 0
265 0.879029637295868 1.937871252234844 0
266 0.8806224465013447 1.602095396343184 0
267 1.856115650635056 1.920856313804193 0
268 1.67568979792757 1.927848612291565 0
269 1.507823398345939 1.931640309604099 0
270 0.7327937655170349 0.2512689199201784 0
271 0.0658442903415825 1.93258071584574 0
272 1.138417405840456 1.943078033614129 0
273 0.8281304704063779 1.956018314614814 0
274 0.6211687922012866 1.95715898554143 0
275 0.442066993965444 1.964638767697194 0
276 0.3614107845362648 1.967136088294472 0
277 1.611164582287525 0.537413213164891 0
278 0.0733616156465664 1.499579338682227 0
279 1.05961992085793 1.489760757863871 0
280 0.2509799744961893 1.970565243092874 0
281 0.3610387397174073 1.757330507857225 0
282 0.2193139873577744 1.819133489458368 0
283 0.662753439783508 1.732996961350751 0
284 0.5873114579850411 0.5774755935646776 0
285 0.4169007413958781 0.4702640326308097 0
286 0.7959381341332784 1.64502822538822 0
287 1.343223453083833 1.592274630278814 0
288 1.30622656925197 1.243053704069323 0
289 0.06371521935712764 1.59681246772658 0
290 1.344350682052757 1.938314348316972 0
291 0.2415082372603564 1.729548602742235 0
292 1.68445505919105 1.254693352269689 0
293 0.05040160615012388 1.970872496332945 0
294 0.5355130022252304 1.725275404235616 0
295 0.2693649393963351 1.490929483004877 0
296 1.007831355295712 1.95330804063865 0
297 0.9615010465102666 1.112621057605477 0
298 1.680674611010418 1.008109201195711 0
299 1.800296523354392 1.650377897987152 0
300 1.813953948955723 1.838890777239298 0
301 0.6136698069324178 1.322324825735944 0
302 0.4381740503057072 1.410230205083264 0
303 0.2927248730529173 1.35426196255281 0
304 0.594466138128541 1.689206493371038 0
305 0.2058796371993811 1.541245041550098 0
306 0.5273121493999275 1.969435135661 0
307 0.2871571481665257 1.964935643387834 0
308 0.9178113821608058 1.895126993546477 0
309 0.06793708847357192 1.888877923565882 0
310 0.1841529734639596 1.976103051607403 0
311 0.2875452852605203 0.7536075231350005 0
312 0.3788772383267451 1.935089994952123 0
313 1.271331573458905 0.6336049548593612 0
314 0.7208318530262428 1.963217845166459 0
315 0.5343935659936818 1.241933729140763 0
316 0.8874009006095398 1.502204371727582 0
317 1.717644594678351 1.851012292201123 0
318 0.3774821035455539 1.677187308538259 0
319 1.626899051789686 1.860789970688449 0
320 1.328349794605435 1.091498015800524 0
321 0.1903399117517066 0.1904253480383726 0
322 1.609502538087067 1.488514776208183 0
323 1.163396929237547 1.87893329385693 0
324 1.520138444661754 1.646992465331928 0
325 0.1725655375204665 1.80237815872666 0
326 0.6552901828427879 1.664953754102026 0
327 0.3465852283516732 1.936299548390567 0
328 1.8018283767336 0.1979974976439114 0
329 1.498007927764597 1.04056904934625 0
330 0.5819560540182023 0.4052645216413419 0
331 1.278118057104776 1.951603824329363 0
332 0.462217557910205 1.931893993184356 0
333 0.1166666666668955 1.978085684360913 0
334 0.6489178949018986 1.92077262657303 0
335 0.5131332154010347 1.630862026899552 0
336 1.934865406529468 1.932538379725791 0
337 1.765197506385328 1.348184795361115 0
338 1.649149628216511 0.7153787209655922 0
339 0.02407933474541434 1.975589982295675 0
340 0.09609712023668021 1.137689125333099 0
341 0.08233030265021113 1.826724855657158 0
342 0.8223013437104429 1.913622949193482 0
343 1.549908590787113 1.874587082832746 0
344 0.9108853966803241 0.4054387134548825 0
345 0.300312711834937 1.756869331202676 0
346 0.4386531090169191 1.659566203237553 0
347 0.9896390670463699 0.9706897090231218 0
348 1.157574009893916 1.81980526035761 0
349 0.2119021974727957 1.776927310319587 0
350 0.97402952859502 1.460752017680235 0
351 1.726036835252413 1.138567100108696 0
352 0.1856835087394175 1.078442896924234 0
353 0.2478968703364751 1.417964236447022 0
354 0.09101119994589776 1.942667740243682 0
355 0.3085982393095745 0.5800521510137573 0
356 0.2314088952737226 1.947455868094162 0
$EndNodes
$Elements
680
1 1 2 1 1 1 6
2 1 2 1 1 6 7
3 1 2 1 1 7 8
4 1 2 1 1 8 9
5 1 2 1 1 9 10
6 1 2 1 1 10 11
7 1 2 1 1 11 2
8 1 2 2 2 2 12
9 1 2 2 2 12 13
10 1 2 2 2 13 14
11 1 2 2 2 14 15
12 1 2 2 2 15 16
13 1 2 2 2 16 17
14 1 2 2 2 17 18
15 1 2 2 2 18 19
16 1 2 2 2 19 20
17 1 2 2 2 20 21
18 1 2 2 2 21 3
19 1 2 4 4 4 51
20 1 2 4 4 51 52
21 1 2 4 4 52 53
22 1 2 4 4 53 54
23 1 2 4 4 54 55
24 1 2 4 4 55 5
25 1 2 3 5 5 56
26 1 2 3 5 56 57
27 1 2 3 5 57 58
28 1 2 3 5 58 59
29 1 2 3 5 59 60
30 1 2 3 5 60 61
31 1 2 3 5 61 62
32 1 2 3 5 62 63
33 1 2 3 5 63 64
34 1 2 3 5 64 65
35 1 2 3 5 65 66
36 1 2 3 5 66 67
37 1 2 3 5 67 68
38 1 2 3 5 68 69
39 1 2 3 5 69 70
40 1 2 3 5 70 71
41 1 2 3 5 71 1
42 2 2 5 1 118 116 258
43 2 2 5 1 219 77 307
44 2 2 5 1 245 98 300
45 2 2 5 1 233 229 234
46 2 2 5 1 231 72 308
47 2 2 5 1 241 90 254
48 2 2 5 1 230 245 300
49 2 2 5 1 217 247 325
50 2 2 5 1 170 243 286
51 2 2 5 1 261 165 278
52 2 2 5 1 73 208 235
53 2 2 5 1 171 298 329
54 2 2 5 1 218 219 307
55 2 2 5 1 298 183 329
56 2 2 5 1 304 294 335
57 2 2 5 1 207 206 260
58 2 2 5 1 259 207 260
59 2 2 5 1 169 161 210
60 2 2 5 1 247 134 325
61 2 2 5 1 229 233 299
62 2 2 5 1 239 97 277
63 2 2 5 1 209 83 238
64 2 2 5 1 145 221 287
65 2 2 5 1 101 134 247
66 2 2 5 1 169 265 342
67 2 2 5 1 291 131 345
68 2 2 5 1 223 88 231
69 2 2 5 1 271 95 293
70 2 2 5 1 122 211 212
71 2 2 5 1 143 149 220
72 2 2 5 1 225 80 240
73 2 2 5 1 122 118 258
74 2 2 5 1 105 131 291
75 2 2 5 1 88 223 272
76 2 2 5 1 209 238 239
77 2 2 5 1 220 149 348
78 2 2 5 1 196 195 219
79 2 2 5 1 90 241 274
80 2 2 5 1 92 236 256
81 2 2 5 1 208 73 323
82 2 2 5 1 243 128 286
83 2 2 5 1 135 145 287
84 2 2 5 1 202 291 345
85 2 2 5 1 270 83 344
86 2 2 5 1 281 131 318
87 2 2 5 1 265 169 308
88 2 2 5 1 165 261 305
89 2 2 5 1 248 96 285
90 2 2 5 1 169 210 308
91 2 2 5 1 18 84 232
92 2 2 5 1 155 239 277
93 2 2 5 1 129 255 315
94 2 2 5 1 219 195 327
95 2 2 5 1 180 270 344
96 2 2 5 1 210 231 308
97 2 2 5 1 211 122 258
98 2 2 5 1 233 152 337
99 2 2 5 1 8 83 270
100 2 2 5 1 97 251 277
101 2 2 5 1 197 281 318
102 2 2 5 1 78 261 278
103 2 2 5 1 130 304 335
104 2 2 5 1 72 231 296
105 2 2 5 1 130 113 243
106 2 2 5 1 238 97 239
107 2 2 5 1 195 193 252
108 2 2 5 1 265 273 342
109 2 2 5 1 161 159 210
110 2 2 5 1 262 169 342
111 2 2 5 1 174 154 212
112 2 2 5 1 95 271 354
113 2 2 5 1 152 233 322
114 2 2 5 1 258 116 301
115 2 2 5 1 157 225 240
116 2 2 5 1 232 84 233
117 2 2 5 1 255 181 315
118 2 2 5 1 15 79 244
119 2 2 5 1 17 18 232
120 2 2 5 1 185 264 334
121 2 2 5 1 195 252 312
122 2 2 5 1 99 271 293
123 2 2 5 1 224 17 232
124 2 2 5 1 185 167 264
125 2 2 5 1 189 241 254
126 2 2 5 1 254 90 306
127 2 2 5 1 80 225 269
128 2 2 5 1 262 89 264
129 2 2 5 1 16 17 224
130 2 2 5 1 166 223 231
131 2 2 5 1 233 234 322
132 2 2 5 1 146 171 329
133 2 2 5 1 163 169 262
134 2 2 5 1 264 74 334
135 2 2 5 1 294 203 335
136 2 2 5 1 274 241 334
137 2 2 5 1 178 179 181
138 2 2 5 1 159 166 210
139 2 2 5 1 133 140 143
140 2 2 5 1 213 200 218
141 2 2 5 1 83 9 238
142 2 2 5 1 14 15 244
143 2 2 5 1 201 200 213
144 2 2 5 1 194 193 195
145 2 2 5 1 210 166 231
146 2 2 5 1 143 140 149
147 2 2 5 1 254 75 332
148 2 2 5 1 236 92 257
149 2 2 5 1 178 176 179
150 2 2 5 1 163 161 169
151 2 2 5 1 193 190 242
152 2 2 5 1 133 132 140
153 2 2 5 1 212 154 347
154 2 2 5 1 60 100 246
155 2 2 5 1 149 156 208
156 2 2 5 1 159 148 166
157 2 2 5 1 246 100 247
158 2 2 5 1 125 132 133
159 2 2 5 1 69 86 249
160 2 2 5 1 58 85 250
161 2 2 5 1 168 167 185
162 2 2 5 1 96 248 321
163 2 2 5 1 190 189 242
164 2 2 5 1 205 181 206
165 2 2 5 1 164 163 167
166 2 2 5 1 100 101 247
167 2 2 5 1 162 161 163
168 2 2 5 1 199 196 200
169 2 2 5 1 160 159 161
170 2 2 5 1 92 256 310
171 2 2 5 1 177 176 178
172 2 2 5 1 147 143 148
173 2 2 5 1 192 190 193
174 2 2 5 1 158 148 159
175 2 2 5 1 208 156 235
176 2 2 5 1 175 174 176
177 2 2 5 1 263 249 311
178 2 2 5 1 232 233 337
179 2 2 5 1 122 212 297
180 2 2 5 1 81 256 356
181 2 2 5 1 188 186 189
182 2 2 5 1 155 277 338
183 2 2 5 1 264 89 314
184 2 2 5 1 79 16 224
185 2 2 5 1 200 196 219
186 2 2 5 1 214 213 256
187 2 2 5 1 206 181 255
188 2 2 5 1 176 174 211
189 2 2 5 1 186 185 241
190 2 2 5 1 272 223 323
191 2 2 5 1 130 243 326
192 2 2 5 1 148 143 220
193 2 2 5 1 91 252 275
194 2 2 5 1 166 220 223
195 2 2 5 1 113 115 243
196 2 2 5 1 149 150 156
197 2 2 5 1 84 19 245
198 2 2 5 1 173 154 174
199 2 2 5 1 194 195 196
200 2 2 5 1 189 186 241
201 2 2 5 1 193 242 252
202 2 2 5 1 115 128 243
203 2 2 5 1 125 126 132
204 2 2 5 1 201 213 214
205 2 2 5 1 20 98 245
206 2 2 5 1 211 174 212
207 2 2 5 1 244 171 338
208 2 2 5 1 216 214 236
209 2 2 5 1 199 200 201
210 2 2 5 1 63 278 289
211 2 2 5 1 121 125 279
212 2 2 5 1 6 7 96
213 2 2 5 1 101 103 134
214 2 2 5 1 192 193 194
215 2 2 5 1 237 236 257
216 2 2 5 1 105 107 131
217 2 2 5 1 76 249 263
218 2 2 5 1 10 97 238
219 2 2 5 1 179 211 258
220 2 2 5 1 178 181 205
221 2 2 5 1 242 189 254
222 2 2 5 1 234 145 322
223 2 2 5 1 111 113 130
224 2 2 5 1 188 189 190
225 2 2 5 1 168 185 186
226 2 2 5 1 216 237 253
227 2 2 5 1 18 19 84
228 2 2 5 1 115 117 128
229 2 2 5 1 205 206 207
230 2 2 5 1 121 124 125
231 2 2 5 1 164 167 168
232 2 2 5 1 133 143 147
233 2 2 5 1 20 21 98
234 2 2 5 1 157 222 225
235 2 2 5 1 135 144 145
236 2 2 5 1 15 16 79
237 2 2 5 1 78 260 261
238 2 2 5 1 149 208 348
239 2 2 5 1 162 163 164
240 2 2 5 1 171 244 298
241 2 2 5 1 160 161 162
242 2 2 5 1 8 9 83
243 2 2 5 1 158 159 160
244 2 2 5 1 93 14 244
245 2 2 5 1 147 148 158
246 2 2 5 1 175 176 177
247 2 2 5 1 10 11 97
248 2 2 5 1 255 139 303
249 2 2 5 1 58 59 85
250 2 2 5 1 69 70 86
251 2 2 5 1 61 82 100
252 2 2 5 1 233 84 299
253 2 2 5 1 19 20 245
254 2 2 5 1 60 61 100
255 2 2 5 1 109 335 346
256 2 2 5 1 61 62 82
257 2 2 5 1 249 86 311
258 2 2 5 1 221 145 324
259 2 2 5 1 13 93 251
260 2 2 5 1 13 14 93
261 2 2 5 1 216 236 237
262 2 2 5 1 231 88 296
263 2 2 5 1 156 157 240
264 2 2 5 1 173 174 175
265 2 2 5 1 67 68 76
266 2 2 5 1 64 65 78
267 2 2 5 1 239 155 313
268 2 2 5 1 56 57 99
269 2 2 5 1 252 91 312
270 2 2 5 1 256 213 356
271 2 2 5 1 236 214 256
272 2 2 5 1 100 82 101
273 2 2 5 1 71 1 321
274 2 2 5 1 242 254 332
275 2 2 5 1 167 163 262
276 2 2 5 1 149 140 150
277 2 2 5 1 179 176 211
278 2 2 5 1 121 279 350
279 2 2 5 1 9 10 238
280 2 2 5 1 12 13 251
281 2 2 5 1 278 165 289
282 2 2 5 1 166 148 220
283 2 2 5 1 133 147 279
284 2 2 5 1 244 79 298
285 2 2 5 1 177 263 311
286 2 2 5 1 132 135 287
287 2 2 5 1 64 78 278
288 2 2 5 1 125 124 126
289 2 2 5 1 132 126 135
290 2 2 5 1 218 200 219
291 2 2 5 1 156 150 157
292 2 2 5 1 225 222 226
293 2 2 5 1 139 255 302
294 2 2 5 1 147 204 279
295 2 2 5 1 235 156 240
296 2 2 5 1 250 85 309
297 2 2 5 1 67 76 340
298 2 2 5 1 251 93 277
299 2 2 5 1 259 66 340
300 2 2 5 1 177 178 263
301 2 2 5 1 73 235 331
302 2 2 5 1 109 111 335
303 2 2 5 1 215 214 216
304 2 2 5 1 77 219 327
305 2 2 5 1 198 196 199
306 2 2 5 1 245 230 299
307 2 2 5 1 243 170 326
308 2 2 5 1 224 292 351
309 2 2 5 1 145 144 322
310 2 2 5 1 7 8 270
311 2 2 5 1 59 60 246
312 2 2 5 1 191 190 192
313 2 2 5 1 70 71 248
314 2 2 5 1 207 259 340
315 2 2 5 1 96 7 270
316 2 2 5 1 68 69 249
317 2 2 5 1 57 58 250
318 2 2 5 1 65 66 259
319 2 2 5 1 62 63 289
320 2 2 5 1 187 186 188
321 2 2 5 1 35 36 265
322 2 2 5 1 179 258 315
323 2 2 5 1 150 140 287
324 2 2 5 1 217 216 253
325 2 2 5 1 209 239 313
326 2 2 5 1 241 185 334
327 2 2 5 1 83 209 344
328 2 2 5 1 63 64 278
329 2 2 5 1 253 85 341
330 2 2 5 1 240 80 290
331 2 2 5 1 125 133 279
332 2 2 5 1 172 154 173
333 2 2 5 1 167 262 264
334 2 2 5 1 89 262 342
335 2 2 5 1 235 240 290
336 2 2 5 1 181 179 315
337 2 2 5 1 23 24 94
338 2 2 5 1 103 105 291
339 2 2 5 1 221 150 287
340 2 2 5 1 25 26 87
341 2 2 5 1 79 224 351
342 2 2 5 1 146 155 171
343 2 2 5 1 135 138 144
344 2 2 5 1 228 229 230
345 2 2 5 1 226 227 228
346 2 2 5 1 27 28 80
347 2 2 5 1 2 12 328
348 2 2 5 1 228 230 317
349 2 2 5 1 22 23 267
350 2 2 5 1 1 6 321
351 2 2 5 1 144 151 152
352 2 2 5 1 30 31 73
353 2 2 5 1 153 141 154
354 2 2 5 1 75 254 306
355 2 2 5 1 84 245 299
356 2 2 5 1 24 25 268
357 2 2 5 1 26 27 269
358 2 2 5 1 157 221 222
359 2 2 5 1 121 123 124
360 2 2 5 1 32 33 88
361 2 2 5 1 137 142 146
362 2 2 5 1 119 120 121
363 2 2 5 1 107 109 318
364 2 2 5 1 31 32 272
365 2 2 5 1 256 81 310
366 2 2 5 1 119 121 350
367 2 2 5 1 101 102 103
368 2 2 5 1 34 35 72
369 2 2 5 1 28 29 290
370 2 2 5 1 93 244 338
371 2 2 5 1 113 114 115
372 2 2 5 1 111 112 113
373 2 2 5 1 131 281 345
374 2 2 5 1 107 108 109
375 2 2 5 1 115 116 117
376 2 2 5 1 109 110 111
377 2 2 5 1 37 38 89
378 2 2 5 1 117 118 119
379 2 2 5 1 201 214 215
380 2 2 5 1 340 76 352
381 2 2 5 1 194 196 198
382 2 2 5 1 39 40 74
383 2 2 5 1 103 104 105
384 2 2 5 1 99 250 271
385 2 2 5 1 105 106 107
386 2 2 5 1 41 42 90
387 2 2 5 1 36 37 273
388 2 2 5 1 43 44 75
389 2 2 5 1 140 132 287
390 2 2 5 1 45 46 91
391 2 2 5 1 78 259 260
392 2 2 5 1 47 48 77
393 2 2 5 1 178 205 263
394 2 2 5 1 188 190 191
395 2 2 5 1 171 155 338
396 2 2 5 1 40 41 274
397 2 2 5 1 53 54 95
398 2 2 5 1 168 186 187
399 2 2 5 1 44 45 275
400 2 2 5 1 162 164 170
401 2 2 5 1 158 160 266
402 2 2 5 1 74 264 314
403 2 2 5 1 46 47 276
404 2 2 5 1 213 218 356
405 2 2 5 1 147 158 204
406 2 2 5 1 175 177 184
407 2 2 5 1 215 216 217
408 2 2 5 1 255 129 302
409 2 2 5 1 260 206 303
410 2 2 5 1 248 285 355
411 2 2 5 1 51 52 92
412 2 2 5 1 49 50 280
413 2 2 5 1 198 199 202
414 2 2 5 1 33 34 296
415 2 2 5 1 135 126 138
416 2 2 5 1 206 255 303
417 2 2 5 1 191 192 197
418 2 2 5 1 226 222 227
419 2 2 5 1 237 257 354
420 2 2 5 1 145 234 324
421 2 2 5 1 50 4 81
422 2 2 5 1 258 301 315
423 2 2 5 1 157 150 221
424 2 2 5 1 253 237 309
425 2 2 5 1 228 227 229
426 2 2 5 1 269 225 343
427 2 2 5 1 154 141 347
428 2 2 5 1 144 138 151
429 2 2 5 1 23 94 267
430 2 2 5 1 94 24 268
431 2 2 5 1 137 146 320
432 2 2 5 1 273 89 342
433 2 2 5 1 25 87 268
434 2 2 5 1 85 59 246
435 2 2 5 1 87 26 269
436 2 2 5 1 172 173 180
437 2 2 5 1 202 199 282
438 2 2 5 1 86 70 248
439 2 2 5 1 153 154 172
440 2 2 5 1 251 97 328
441 2 2 5 1 101 82 102
442 2 2 5 1 27 80 269
443 2 2 5 1 124 123 127
444 2 2 5 1 146 142 155
445 2 2 5 1 76 68 249
446 2 2 5 1 121 120 123
447 2 2 5 1 99 57 250
448 2 2 5 1 54 55 293
449 2 2 5 1 134 103 291
450 2 2 5 1 82 62 289
451 2 2 5 1 78 65 259
452 2 2 5 1 197 192 281
453 2 2 5 1 265 36 273
454 2 2 5 1 80 28 290
455 2 2 5 1 73 31 272
456 2 2 5 1 72 35 265
457 2 2 5 1 102 82 289
458 2 2 5 1 119 118 120
459 2 2 5 1 85 253 309
460 2 2 5 1 117 119 316
461 2 2 5 1 6 96 321
462 2 2 5 1 73 272 323
463 2 2 5 1 32 88 272
464 2 2 5 1 11 2 328
465 2 2 5 1 115 114 116
466 2 2 5 1 113 112 114
467 2 2 5 1 230 300 317
468 2 2 5 1 111 110 112
469 2 2 5 1 229 227 234
470 2 2 5 1 117 116 118
471 2 2 5 1 128 266 286
472 2 2 5 1 109 108 110
473 2 2 5 1 192 194 281
474 2 2 5 1 151 138 182
475 2 2 5 1 107 106 108
476 2 2 5 1 199 201 282
477 2 2 5 1 204 158 266
478 2 2 5 1 3 22 336
479 2 2 5 1 103 102 104
480 2 2 5 1 85 246 341
481 2 2 5 1 247 217 341
482 2 2 5 1 188 191 294
483 2 2 5 1 42 43 306
484 2 2 5 1 105 104 106
485 2 2 5 1 288 127 320
486 2 2 5 1 180 173 284
487 2 2 5 1 120 118 122
488 2 2 5 1 127 123 136
489 2 2 5 1 151 182 183
490 2 2 5 1 164 168 283
491 2 2 5 1 21 3 336
492 2 2 5 1 111 130 335
493 2 2 5 1 88 33 296
494 2 2 5 1 98 21 336
495 2 2 5 1 160 162 286
496 2 2 5 1 173 175 284
497 2 2 5 1 153 172 209
498 2 2 5 1 5 56 339
499 2 2 5 1 195 312 327
500 2 2 5 1 152 151 292
501 2 2 5 1 114 112 129
502 2 2 5 1 110 108 139
503 2 2 5 1 37 89 273
504 2 2 5 1 48 49 307
505 2 2 5 1 127 136 137
506 2 2 5 1 55 5 339
507 2 2 5 1 292 224 337
508 2 2 5 1 194 198 281
509 2 2 5 1 137 136 141
510 2 2 5 1 128 117 316
511 2 2 5 1 124 127 288
512 2 2 5 1 137 141 142
513 2 2 5 1 170 164 283
514 2 2 5 1 201 215 282
515 2 2 5 1 266 160 286
516 2 2 5 1 34 72 296
517 2 2 5 1 142 141 153
518 2 2 5 1 104 102 165
519 2 2 5 1 74 40 274
520 2 2 5 1 187 188 294
521 2 2 5 1 95 54 293
522 2 2 5 1 4 51 310
523 2 2 5 1 41 90 274
524 2 2 5 1 126 124 288
525 2 2 5 1 235 290 331
526 2 2 5 1 75 44 275
527 2 2 5 1 191 197 203
528 2 2 5 1 45 91 275
529 2 2 5 1 91 46 276
530 2 2 5 1 47 77 276
531 2 2 5 1 165 102 289
532 2 2 5 1 230 229 299
533 2 2 5 1 284 184 285
534 2 2 5 1 168 187 283
535 2 2 5 1 237 271 309
536 2 2 5 1 162 170 286
537 2 2 5 1 95 257 333
538 2 2 5 1 108 106 295
539 2 2 5 1 175 184 284
540 2 2 5 1 266 128 316
541 2 2 5 1 38 39 314
542 2 2 5 1 97 11 328
543 2 2 5 1 90 42 306
544 2 2 5 1 257 92 333
545 2 2 5 1 297 212 347
546 2 2 5 1 246 247 341
547 2 2 5 1 222 221 324
548 2 2 5 1 50 81 280
549 2 2 5 1 138 126 288
550 2 2 5 1 89 38 314
551 2 2 5 1 43 75 306
552 2 2 5 1 182 288 320
553 2 2 5 1 77 48 307
554 2 2 5 1 263 205 352
555 2 2 5 1 290 29 331
556 2 2 5 1 191 203 294
557 2 2 5 1 131 107 318
558 2 2 5 1 267 94 300
559 2 2 5 1 39 74 314
560 2 2 5 1 51 92 310
561 2 2 5 1 271 250 309
562 2 2 5 1 151 183 292
563 2 2 5 1 30 73 331
564 2 2 5 1 217 253 341
565 2 2 5 1 56 99 339
566 2 2 5 1 49 280 307
567 2 2 5 1 66 67 340
568 2 2 5 1 144 152 322
569 2 2 5 1 225 226 343
570 2 2 5 1 81 4 310
571 2 2 5 1 98 267 300
572 2 2 5 1 182 138 288
573 2 2 5 1 139 108 295
574 2 2 5 1 248 71 321
575 2 2 5 1 72 265 308
576 2 2 5 1 226 228 319
577 2 2 5 1 224 232 337
578 2 2 5 1 153 209 313
579 2 2 5 1 184 177 311
580 2 2 5 1 270 180 330
581 2 2 5 1 318 109 346
582 2 2 5 1 304 130 326
583 2 2 5 1 76 263 352
584 2 2 5 1 53 95 333
585 2 2 5 1 155 142 313
586 2 2 5 1 136 123 297
587 2 2 5 1 271 237 354
588 2 2 5 1 234 227 324
589 2 2 5 1 86 248 355
590 2 2 5 1 92 52 333
591 2 2 5 1 123 120 297
592 2 2 5 1 129 112 302
593 2 2 5 1 120 122 297
594 2 2 5 1 142 153 313
595 2 2 5 1 136 297 347
596 2 2 5 1 183 298 351
597 2 2 5 1 261 260 353
598 2 2 5 1 91 276 312
599 2 2 5 1 252 242 332
600 2 2 5 1 261 295 305
601 2 2 5 1 96 270 330
602 2 2 5 1 29 30 331
603 2 2 5 1 223 220 348
604 2 2 5 1 152 292 337
605 2 2 5 1 295 106 305
606 2 2 5 1 94 268 317
607 2 2 5 1 116 114 301
608 2 2 5 1 114 129 301
609 2 2 5 1 110 139 302
610 2 2 5 1 112 110 302
611 2 2 5 1 300 94 317
612 2 2 5 1 139 295 353
613 2 2 5 1 277 93 338
614 2 2 5 1 227 222 324
615 2 2 5 1 267 98 336
616 2 2 5 1 311 86 355
617 2 2 5 1 268 87 319
618 2 2 5 1 203 197 346
619 2 2 5 1 12 251 328
620 2 2 5 1 104 165 305
621 2 2 5 1 303 139 353
622 2 2 5 1 127 137 320
623 2 2 5 1 204 266 316
624 2 2 5 1 106 104 305
625 2 2 5 1 257 95 354
626 2 2 5 1 275 252 332
627 2 2 5 1 283 187 304
628 2 2 5 1 187 294 304
629 2 2 5 1 285 96 330
630 2 2 5 1 282 215 325
631 2 2 5 1 301 129 315
632 2 2 5 1 215 217 325
633 2 2 5 1 320 146 329
634 2 2 5 1 52 53 333
635 2 2 5 1 180 284 330
636 2 2 5 1 197 318 346
637 2 2 5 1 209 172 344
638 2 2 5 1 317 268 319
639 2 2 5 1 280 218 307
640 2 2 5 1 316 119 350
641 2 2 5 1 281 198 345
642 2 2 5 1 202 282 349
643 2 2 5 1 335 203 346
644 2 2 5 1 284 285 330
645 2 2 5 1 184 311 355
646 2 2 5 1 276 77 327
647 2 2 5 1 312 276 327
648 2 2 5 1 319 87 343
649 2 2 5 1 279 204 350
650 2 2 5 1 205 207 352
651 2 2 5 1 22 267 336
652 2 2 5 1 183 182 329
653 2 2 5 1 170 283 326
654 2 2 5 1 298 79 351
655 2 2 5 1 292 183 351
656 2 2 5 1 218 280 356
657 2 2 5 1 291 202 349
658 2 2 5 1 228 317 319
659 2 2 5 1 74 274 334
660 2 2 5 1 75 275 332
661 2 2 5 1 141 136 347
662 2 2 5 1 285 184 355
663 2 2 5 1 87 269 343
664 2 2 5 1 99 293 339
665 2 2 5 1 293 55 339
666 2 2 5 1 207 340 352
667 2 2 5 1 260 303 353
668 2 2 5 1 204 316 350
669 2 2 5 1 172 180 344
670 2 2 5 1 134 291 349
671 2 2 5 1 198 202 345
672 2 2 5 1 283 304 326
673 2 2 5 1 295 261 353
674 2 2 5 1 182 320 329
675 2 2 5 1 323 223 348
676 2 2 5 1 282 325 349
677 2 2 5 1 226 319 343
678 2 2 5 1 280 81 356
679 2 2 5 1 325 134 349
680 2 2 5 1 208 323 348
$EndElements
