solid
facet normal 0.0 1.0 0.0
 outer loop
  vertex 0.4999999999986718 1.0 1.0
  vertex 0.3749999999993359 1.0 0.875
  vertex 0.2499999999994083 1.0 1.0
 endloop
endfacet
facet normal 0.0 1.0 0.0
 outer loop
  vertex 0.3749999999993359 1.0 0.875
  vertex 0.125 1.0 0.875
  vertex 0.2499999999994083 1.0 1.0
 endloop
endfacet
facet normal 0.0 1.0 0.0
 outer loop
  vertex 0.3749999999993359 1.0 0.875
  vertex 0.25 1.0 0.75
  vertex 0.125 1.0 0.875
 endloop
endfacet
facet normal 0.0 1.0 0.0
 outer loop
  vertex 0.2499999999994083 1.0 1.0
  vertex 0.125 1.0 0.875
  vertex 0.0 1.0 1.0
 endloop
endfacet
facet normal 0.0 1.0 0.0
 outer loop
  vertex 0.0 1.0 1.0
  vertex 0.125 1.0 0.875
  vertex 0.0 1.0 0.7499999999993359
 endloop
endfacet
facet normal 0.0 1.0 0.0
 outer loop
  vertex 0.125 1.0 0.875
  vertex 0.125 1.0 0.6249999999993359
  vertex 0.0 1.0 0.7499999999993359
 endloop
endfacet
facet normal 0.0 1.0 0.0
 outer loop
  vertex 0.125 1.0 0.875
  vertex 0.25 1.0 0.75
  vertex 0.125 1.0 0.6249999999993359
 endloop
endfacet
facet normal 0.0 1.0 0.0
 outer loop
  vertex 0.0 1.0 0.7499999999993359
  vertex 0.125 1.0 0.6249999999993359
  vertex 0.0 1.0 0.4999999999986718
 endloop
endfacet
facet normal 0.0 1.0 0.0
 outer loop
  vertex 0.25 1.0 0.25
  vertex 0.3749999999993359 1.0 0.125
  vertex 0.125 1.0 0.125
 endloop
endfacet
facet normal 0.0 1.0 0.0
 outer loop
  vertex 0.3749999999993359 1.0 0.125
  vertex 0.2499999999994083 1.0 0.0
  vertex 0.125 1.0 0.125
 endloop
endfacet
facet normal 0.0 1.0 0.0
 outer loop
  vertex 0.3749999999993359 1.0 0.125
  vertex 0.4999999999986718 1.0 0.0
  vertex 0.2499999999994083 1.0 0.0
 endloop
endfacet
facet normal 0.0 1.0 0.0
 outer loop
  vertex 0.125 1.0 0.125
  vertex 0.2499999999994083 1.0 0.0
  vertex 0.0 1.0 0.0
 endloop
endfacet
facet normal 0.0 1.0 0.0
 outer loop
  vertex 0.0 1.0 0.4999999999986718
  vertex 0.125 1.0 0.3749999999993359
  vertex 0.0 1.0 0.2499999999994083
 endloop
endfacet
facet normal 0.0 1.0 0.0
 outer loop
  vertex 0.125 1.0 0.3749999999993359
  vertex 0.125 1.0 0.125
  vertex 0.0 1.0 0.2499999999994083
 endloop
endfacet
facet normal 0.0 1.0 0.0
 outer loop
  vertex 0.125 1.0 0.3749999999993359
  vertex 0.25 1.0 0.25
  vertex 0.125 1.0 0.125
 endloop
endfacet
facet normal 0.0 1.0 0.0
 outer loop
  vertex 0.0 1.0 0.2499999999994083
  vertex 0.125 1.0 0.125
  vertex 0.0 1.0 0.0
 endloop
endfacet
facet normal 0.0 1.0 0.0
 outer loop
  vertex 0.75 1.0 0.25
  vertex 0.875 1.0 0.125
  vertex 0.6249999999993359 1.0 0.125
 endloop
endfacet
facet normal 0.0 1.0 0.0
 outer loop
  vertex 0.875 1.0 0.125
  vertex 0.7499999999993359 1.0 0.0
  vertex 0.6249999999993359 1.0 0.125
 endloop
endfacet
facet normal 0.0 1.0 0.0
 outer loop
  vertex 0.875 1.0 0.125
  vertex 1.0 1.0 0.0
  vertex 0.7499999999993359 1.0 0.0
 endloop
endfacet
facet normal 0.0 1.0 0.0
 outer loop
  vertex 0.6249999999993359 1.0 0.125
  vertex 0.7499999999993359 1.0 0.0
  vertex 0.4999999999986718 1.0 0.0
 endloop
endfacet
facet normal -0.0 1.0 0.0
 outer loop
  vertex 0.75 1.0 0.25
  vertex 0.875 1.0 0.3749999999993359
  vertex 0.875 1.0 0.125
 endloop
endfacet
facet normal 0.0 1.0 0.0
 outer loop
  vertex 0.875 1.0 0.3749999999993359
  vertex 1.0 1.0 0.2499999999994083
  vertex 0.875 1.0 0.125
 endloop
endfacet
facet normal -0.0 1.0 0.0
 outer loop
  vertex 0.875 1.0 0.3749999999993359
  vertex 1.0 1.0 0.4999999999986718
  vertex 1.0 1.0 0.2499999999994083
 endloop
endfacet
facet normal -0.0 1.0 0.0
 outer loop
  vertex 0.875 1.0 0.125
  vertex 1.0 1.0 0.2499999999994083
  vertex 1.0 1.0 0.0
 endloop
endfacet
facet normal 0.0 1.0 0.0
 outer loop
  vertex 1.0 1.0 1.0
  vertex 0.875 1.0 0.875
  vertex 0.7499999999993359 1.0 1.0
 endloop
endfacet
facet normal 0.0 1.0 0.0
 outer loop
  vertex 0.875 1.0 0.875
  vertex 0.6249999999993359 1.0 0.875
  vertex 0.7499999999993359 1.0 1.0
 endloop
endfacet
facet normal 0.0 1.0 0.0
 outer loop
  vertex 0.875 1.0 0.875
  vertex 0.75 1.0 0.75
  vertex 0.6249999999993359 1.0 0.875
 endloop
endfacet
facet normal 0.0 1.0 0.0
 outer loop
  vertex 0.7499999999993359 1.0 1.0
  vertex 0.6249999999993359 1.0 0.875
  vertex 0.4999999999986718 1.0 1.0
 endloop
endfacet
facet normal -0.0 1.0 0.0
 outer loop
  vertex 0.75 1.0 0.75
  vertex 0.875 1.0 0.875
  vertex 0.875 1.0 0.6249999999993359
 endloop
endfacet
facet normal 0.0 1.0 0.0
 outer loop
  vertex 0.875 1.0 0.875
  vertex 1.0 1.0 0.7499999999993359
  vertex 0.875 1.0 0.6249999999993359
 endloop
endfacet
facet normal -0.0 1.0 0.0
 outer loop
  vertex 0.875 1.0 0.875
  vertex 1.0 1.0 1.0
  vertex 1.0 1.0 0.7499999999993359
 endloop
endfacet
facet normal -0.0 1.0 0.0
 outer loop
  vertex 0.875 1.0 0.6249999999993359
  vertex 1.0 1.0 0.7499999999993359
  vertex 1.0 1.0 0.4999999999986718
 endloop
endfacet
facet normal 0.0 1.0 0.0
 outer loop
  vertex 0.75 1.0 0.25
  vertex 0.6249999999993359 1.0 0.125
  vertex 0.5 1.0 0.25
 endloop
endfacet
facet normal 0.0 1.0 0.0
 outer loop
  vertex 0.6249999999993359 1.0 0.125
  vertex 0.3749999999993359 1.0 0.125
  vertex 0.5 1.0 0.25
 endloop
endfacet
facet normal 0.0 1.0 0.0
 outer loop
  vertex 0.6249999999993359 1.0 0.125
  vertex 0.4999999999986718 1.0 0.0
  vertex 0.3749999999993359 1.0 0.125
 endloop
endfacet
facet normal 0.0 1.0 0.0
 outer loop
  vertex 0.5 1.0 0.25
  vertex 0.3749999999993359 1.0 0.125
  vertex 0.25 1.0 0.25
 endloop
endfacet
facet normal 0.0 1.0 0.0
 outer loop
  vertex 0.75 1.0 0.75
  vertex 0.5 1.0 0.75
  vertex 0.6249999999993359 1.0 0.875
 endloop
endfacet
facet normal 0.0 1.0 -0.0
 outer loop
  vertex 0.5 1.0 0.75
  vertex 0.3749999999993359 1.0 0.875
  vertex 0.6249999999993359 1.0 0.875
 endloop
endfacet
facet normal 0.0 1.0 0.0
 outer loop
  vertex 0.5 1.0 0.75
  vertex 0.25 1.0 0.75
  vertex 0.3749999999993359 1.0 0.875
 endloop
endfacet
facet normal 0.0 1.0 0.0
 outer loop
  vertex 0.6249999999993359 1.0 0.875
  vertex 0.3749999999993359 1.0 0.875
  vertex 0.4999999999986718 1.0 1.0
 endloop
endfacet
facet normal 0.0 1.0 0.0
 outer loop
  vertex 0.75 1.0 0.75
  vertex 0.875 1.0 0.6249999999993359
  vertex 0.75 1.0 0.5
 endloop
endfacet
facet normal 0.0 1.0 0.0
 outer loop
  vertex 0.875 1.0 0.6249999999993359
  vertex 0.875 1.0 0.3749999999993359
  vertex 0.75 1.0 0.5
 endloop
endfacet
facet normal 0.0 1.0 0.0
 outer loop
  vertex 0.875 1.0 0.6249999999993359
  vertex 1.0 1.0 0.4999999999986718
  vertex 0.875 1.0 0.3749999999993359
 endloop
endfacet
facet normal 0.0 1.0 0.0
 outer loop
  vertex 0.75 1.0 0.5
  vertex 0.875 1.0 0.3749999999993359
  vertex 0.75 1.0 0.25
 endloop
endfacet
facet normal 0.0 1.0 0.0
 outer loop
  vertex 0.25 1.0 0.75
  vertex 0.25 1.0 0.5
  vertex 0.125 1.0 0.6249999999993359
 endloop
endfacet
facet normal 0.0 1.0 0.0
 outer loop
  vertex 0.25 1.0 0.5
  vertex 0.125 1.0 0.3749999999993359
  vertex 0.125 1.0 0.6249999999993359
 endloop
endfacet
facet normal 0.0 1.0 0.0
 outer loop
  vertex 0.25 1.0 0.5
  vertex 0.25 1.0 0.25
  vertex 0.125 1.0 0.3749999999993359
 endloop
endfacet
facet normal 0.0 1.0 0.0
 outer loop
  vertex 0.125 1.0 0.6249999999993359
  vertex 0.125 1.0 0.3749999999993359
  vertex 0.0 1.0 0.4999999999986718
 endloop
endfacet
facet normal 0.0 1.0 0.0
 outer loop
  vertex 0.25 1.0 0.75
  vertex 0.375 1.0 0.625
  vertex 0.25 1.0 0.5
 endloop
endfacet
facet normal 0.0 1.0 0.0
 outer loop
  vertex 0.375 1.0 0.625
  vertex 0.375 1.0 0.375
  vertex 0.25 1.0 0.5
 endloop
endfacet
facet normal 0.0 1.0 0.0
 outer loop
  vertex 0.375 1.0 0.625
  vertex 0.5 1.0 0.5
  vertex 0.375 1.0 0.375
 endloop
endfacet
facet normal 0.0 1.0 0.0
 outer loop
  vertex 0.25 1.0 0.5
  vertex 0.375 1.0 0.375
  vertex 0.25 1.0 0.25
 endloop
endfacet
facet normal 0.0 1.0 0.0
 outer loop
  vertex 0.75 1.0 0.75
  vertex 0.625 1.0 0.625
  vertex 0.5 1.0 0.75
 endloop
endfacet
facet normal 0.0 1.0 0.0
 outer loop
  vertex 0.625 1.0 0.625
  vertex 0.375 1.0 0.625
  vertex 0.5 1.0 0.75
 endloop
endfacet
facet normal 0.0 1.0 0.0
 outer loop
  vertex 0.625 1.0 0.625
  vertex 0.5 1.0 0.5
  vertex 0.375 1.0 0.625
 endloop
endfacet
facet normal 0.0 1.0 0.0
 outer loop
  vertex 0.5 1.0 0.75
  vertex 0.375 1.0 0.625
  vertex 0.25 1.0 0.75
 endloop
endfacet
facet normal 0.0 1.0 0.0
 outer loop
  vertex 0.5 1.0 0.5
  vertex 0.625 1.0 0.375
  vertex 0.375 1.0 0.375
 endloop
endfacet
facet normal 0.0 1.0 0.0
 outer loop
  vertex 0.625 1.0 0.375
  vertex 0.5 1.0 0.25
  vertex 0.375 1.0 0.375
 endloop
endfacet
facet normal 0.0 1.0 0.0
 outer loop
  vertex 0.625 1.0 0.375
  vertex 0.75 1.0 0.25
  vertex 0.5 1.0 0.25
 endloop
endfacet
facet normal 0.0 1.0 0.0
 outer loop
  vertex 0.375 1.0 0.375
  vertex 0.5 1.0 0.25
  vertex 0.25 1.0 0.25
 endloop
endfacet
facet normal -0.0 1.0 0.0
 outer loop
  vertex 0.5 1.0 0.5
  vertex 0.625 1.0 0.625
  vertex 0.625 1.0 0.375
 endloop
endfacet
facet normal 0.0 1.0 0.0
 outer loop
  vertex 0.625 1.0 0.625
  vertex 0.75 1.0 0.5
  vertex 0.625 1.0 0.375
 endloop
endfacet
facet normal -0.0 1.0 0.0
 outer loop
  vertex 0.625 1.0 0.625
  vertex 0.75 1.0 0.75
  vertex 0.75 1.0 0.5
 endloop
endfacet
facet normal -0.0 1.0 0.0
 outer loop
  vertex 0.625 1.0 0.375
  vertex 0.75 1.0 0.5
  vertex 0.75 1.0 0.25
 endloop
endfacet
facet normal 1.0 0.0 0.0
 outer loop
  vertex 1.0 0.25 0.25
  vertex 1.0 0.125 0.125
  vertex 1.0 0.3749999999993359 0.125
 endloop
endfacet
facet normal 1.0 -0.0 0.0
 outer loop
  vertex 1.0 0.125 0.125
  vertex 1.0 0.2499999999994083 0.0
  vertex 1.0 0.3749999999993359 0.125
 endloop
endfacet
facet normal 1.0 0.0 0.0
 outer loop
  vertex 1.0 0.125 0.125
  vertex 1.0 0.0 0.0
  vertex 1.0 0.2499999999994083 0.0
 endloop
endfacet
facet normal 1.0 0.0 0.0
 outer loop
  vertex 1.0 0.3749999999993359 0.125
  vertex 1.0 0.2499999999994083 0.0
  vertex 1.0 0.4999999999986718 0.0
 endloop
endfacet
facet normal 1.0 0.0 0.0
 outer loop
  vertex 1.0 0.0 0.5000000000013305
  vertex 1.0 0.0 0.2500000000006652
  vertex 1.0 0.125 0.3750000000006652
 endloop
endfacet
facet normal 1.0 -0.0 0.0
 outer loop
  vertex 1.0 0.0 0.2500000000006652
  vertex 1.0 0.125 0.125
  vertex 1.0 0.125 0.3750000000006652
 endloop
endfacet
facet normal 1.0 0.0 0.0
 outer loop
  vertex 1.0 0.0 0.2500000000006652
  vertex 1.0 0.0 0.0
  vertex 1.0 0.125 0.125
 endloop
endfacet
facet normal 1.0 0.0 0.0
 outer loop
  vertex 1.0 0.125 0.3750000000006652
  vertex 1.0 0.125 0.125
  vertex 1.0 0.25 0.25
 endloop
endfacet
facet normal 1.0 0.0 0.0
 outer loop
  vertex 1.0 0.5000000000013305 1.0
  vertex 1.0 0.2500000000006652 1.0
  vertex 1.0 0.3750000000006652 0.875
 endloop
endfacet
facet normal 1.0 0.0 0.0
 outer loop
  vertex 1.0 0.2500000000006652 1.0
  vertex 1.0 0.125 0.875
  vertex 1.0 0.3750000000006652 0.875
 endloop
endfacet
facet normal 1.0 0.0 0.0
 outer loop
  vertex 1.0 0.2500000000006652 1.0
  vertex 1.0 0.0 1.0
  vertex 1.0 0.125 0.875
 endloop
endfacet
facet normal 1.0 0.0 0.0
 outer loop
  vertex 1.0 0.3750000000006652 0.875
  vertex 1.0 0.125 0.875
  vertex 1.0 0.25 0.75
 endloop
endfacet
facet normal 1.0 0.0 0.0
 outer loop
  vertex 1.0 0.0 1.0
  vertex 1.0 0.0 0.7500000000004128
  vertex 1.0 0.125 0.875
 endloop
endfacet
facet normal 1.0 -0.0 0.0
 outer loop
  vertex 1.0 0.0 0.7500000000004128
  vertex 1.0 0.125 0.6250000000006652
  vertex 1.0 0.125 0.875
 endloop
endfacet
facet normal 1.0 0.0 0.0
 outer loop
  vertex 1.0 0.0 0.7500000000004128
  vertex 1.0 0.0 0.5000000000013305
  vertex 1.0 0.125 0.6250000000006652
 endloop
endfacet
facet normal 1.0 0.0 0.0
 outer loop
  vertex 1.0 0.125 0.875
  vertex 1.0 0.125 0.6250000000006652
  vertex 1.0 0.25 0.75
 endloop
endfacet
facet normal 1.0 -0.0 0.0
 outer loop
  vertex 1.0 0.75 0.25
  vertex 1.0 0.875 0.125
  vertex 1.0 0.875 0.3749999999993359
 endloop
endfacet
facet normal 1.0 0.0 0.0
 outer loop
  vertex 1.0 0.875 0.125
  vertex 1.0 1.0 0.2499999999994083
  vertex 1.0 0.875 0.3749999999993359
 endloop
endfacet
facet normal 1.0 -0.0 0.0
 outer loop
  vertex 1.0 0.875 0.125
  vertex 1.0 1.0 0.0
  vertex 1.0 1.0 0.2499999999994083
 endloop
endfacet
facet normal 1.0 -0.0 0.0
 outer loop
  vertex 1.0 0.875 0.3749999999993359
  vertex 1.0 1.0 0.2499999999994083
  vertex 1.0 1.0 0.4999999999986718
 endloop
endfacet
facet normal 1.0 0.0 0.0
 outer loop
  vertex 1.0 0.75 0.25
  vertex 1.0 0.6249999999993359 0.125
  vertex 1.0 0.875 0.125
 endloop
endfacet
facet normal 1.0 -0.0 0.0
 outer loop
  vertex 1.0 0.6249999999993359 0.125
  vertex 1.0 0.7499999999993359 0.0
  vertex 1.0 0.875 0.125
 endloop
endfacet
facet normal 1.0 0.0 0.0
 outer loop
  vertex 1.0 0.6249999999993359 0.125
  vertex 1.0 0.4999999999986718 0.0
  vertex 1.0 0.7499999999993359 0.0
 endloop
endfacet
facet normal 1.0 0.0 0.0
 outer loop
  vertex 1.0 0.875 0.125
  vertex 1.0 0.7499999999993359 0.0
  vertex 1.0 1.0 0.0
 endloop
endfacet
facet normal 1.0 0.0 0.0
 outer loop
  vertex 1.0 1.0 1.0
  vertex 1.0 0.7500000000004128 1.0
  vertex 1.0 0.875 0.875
 endloop
endfacet
facet normal 1.0 0.0 0.0
 outer loop
  vertex 1.0 0.7500000000004128 1.0
  vertex 1.0 0.6250000000006652 0.875
  vertex 1.0 0.875 0.875
 endloop
endfacet
facet normal 1.0 0.0 0.0
 outer loop
  vertex 1.0 0.7500000000004128 1.0
  vertex 1.0 0.5000000000013305 1.0
  vertex 1.0 0.6250000000006652 0.875
 endloop
endfacet
facet normal 1.0 0.0 0.0
 outer loop
  vertex 1.0 0.875 0.875
  vertex 1.0 0.6250000000006652 0.875
  vertex 1.0 0.75 0.75
 endloop
endfacet
facet normal 1.0 -0.0 0.0
 outer loop
  vertex 1.0 0.75 0.75
  vertex 1.0 0.875 0.6249999999993359
  vertex 1.0 0.875 0.875
 endloop
endfacet
facet normal 1.0 0.0 0.0
 outer loop
  vertex 1.0 0.875 0.6249999999993359
  vertex 1.0 1.0 0.7499999999993359
  vertex 1.0 0.875 0.875
 endloop
endfacet
facet normal 1.0 -0.0 0.0
 outer loop
  vertex 1.0 0.875 0.6249999999993359
  vertex 1.0 1.0 0.4999999999986718
  vertex 1.0 1.0 0.7499999999993359
 endloop
endfacet
facet normal 1.0 -0.0 0.0
 outer loop
  vertex 1.0 0.875 0.875
  vertex 1.0 1.0 0.7499999999993359
  vertex 1.0 1.0 1.0
 endloop
endfacet
facet normal 1.0 0.0 0.0
 outer loop
  vertex 1.0 0.75 0.25
  vertex 1.0 0.875 0.3749999999993359
  vertex 1.0 0.75 0.5
 endloop
endfacet
facet normal 1.0 0.0 -0.0
 outer loop
  vertex 1.0 0.875 0.3749999999993359
  vertex 1.0 0.875 0.6249999999993359
  vertex 1.0 0.75 0.5
 endloop
endfacet
facet normal 1.0 0.0 0.0
 outer loop
  vertex 1.0 0.875 0.3749999999993359
  vertex 1.0 1.0 0.4999999999986718
  vertex 1.0 0.875 0.6249999999993359
 endloop
endfacet
facet normal 1.0 0.0 0.0
 outer loop
  vertex 1.0 0.75 0.5
  vertex 1.0 0.875 0.6249999999993359
  vertex 1.0 0.75 0.75
 endloop
endfacet
facet normal 1.0 -0.0 0.0
 outer loop
  vertex 1.0 0.5 0.5
  vertex 1.0 0.625 0.375
  vertex 1.0 0.625 0.625
 endloop
endfacet
facet normal 1.0 0.0 0.0
 outer loop
  vertex 1.0 0.625 0.375
  vertex 1.0 0.75 0.5
  vertex 1.0 0.625 0.625
 endloop
endfacet
facet normal 1.0 -0.0 0.0
 outer loop
  vertex 1.0 0.625 0.375
  vertex 1.0 0.75 0.25
  vertex 1.0 0.75 0.5
 endloop
endfacet
facet normal 1.0 -0.0 0.0
 outer loop
  vertex 1.0 0.625 0.625
  vertex 1.0 0.75 0.5
  vertex 1.0 0.75 0.75
 endloop
endfacet
facet normal 1.0 -0.0 0.0
 outer loop
  vertex 1.0 0.25 0.25
  vertex 1.0 0.3749999999993359 0.125
  vertex 1.0 0.5 0.25
 endloop
endfacet
facet normal 1.0 0.0 0.0
 outer loop
  vertex 1.0 0.3749999999993359 0.125
  vertex 1.0 0.6249999999993359 0.125
  vertex 1.0 0.5 0.25
 endloop
endfacet
facet normal 1.0 -0.0 0.0
 outer loop
  vertex 1.0 0.3749999999993359 0.125
  vertex 1.0 0.4999999999986718 0.0
  vertex 1.0 0.6249999999993359 0.125
 endloop
endfacet
facet normal 1.0 -0.0 0.0
 outer loop
  vertex 1.0 0.5 0.25
  vertex 1.0 0.6249999999993359 0.125
  vertex 1.0 0.75 0.25
 endloop
endfacet
facet normal 1.0 0.0 0.0
 outer loop
  vertex 1.0 0.5 0.5
  vertex 1.0 0.375 0.375
  vertex 1.0 0.625 0.375
 endloop
endfacet
facet normal 1.0 -0.0 0.0
 outer loop
  vertex 1.0 0.375 0.375
  vertex 1.0 0.5 0.25
  vertex 1.0 0.625 0.375
 endloop
endfacet
facet normal 1.0 0.0 0.0
 outer loop
  vertex 1.0 0.375 0.375
  vertex 1.0 0.25 0.25
  vertex 1.0 0.5 0.25
 endloop
endfacet
facet normal 1.0 0.0 0.0
 outer loop
  vertex 1.0 0.625 0.375
  vertex 1.0 0.5 0.25
  vertex 1.0 0.75 0.25
 endloop
endfacet
facet normal 1.0 0.0 0.0
 outer loop
  vertex 1.0 0.5000000000013305 1.0
  vertex 1.0 0.3750000000006652 0.875
  vertex 1.0 0.6250000000006652 0.875
 endloop
endfacet
facet normal 1.0 -0.0 0.0
 outer loop
  vertex 1.0 0.3750000000006652 0.875
  vertex 1.0 0.5 0.75
  vertex 1.0 0.6250000000006652 0.875
 endloop
endfacet
facet normal 1.0 0.0 0.0
 outer loop
  vertex 1.0 0.3750000000006652 0.875
  vertex 1.0 0.25 0.75
  vertex 1.0 0.5 0.75
 endloop
endfacet
facet normal 1.0 0.0 0.0
 outer loop
  vertex 1.0 0.6250000000006652 0.875
  vertex 1.0 0.5 0.75
  vertex 1.0 0.75 0.75
 endloop
endfacet
facet normal 1.0 0.0 0.0
 outer loop
  vertex 1.0 0.75 0.75
  vertex 1.0 0.5 0.75
  vertex 1.0 0.625 0.625
 endloop
endfacet
facet normal 1.0 0.0 0.0
 outer loop
  vertex 1.0 0.5 0.75
  vertex 1.0 0.375 0.625
  vertex 1.0 0.625 0.625
 endloop
endfacet
facet normal 1.0 0.0 0.0
 outer loop
  vertex 1.0 0.5 0.75
  vertex 1.0 0.25 0.75
  vertex 1.0 0.375 0.625
 endloop
endfacet
facet normal 1.0 0.0 0.0
 outer loop
  vertex 1.0 0.625 0.625
  vertex 1.0 0.375 0.625
  vertex 1.0 0.5 0.5
 endloop
endfacet
facet normal 1.0 0.0 0.0
 outer loop
  vertex 1.0 0.25 0.75
  vertex 1.0 0.25 0.5
  vertex 1.0 0.375 0.625
 endloop
endfacet
facet normal 1.0 -0.0 0.0
 outer loop
  vertex 1.0 0.25 0.5
  vertex 1.0 0.375 0.375
  vertex 1.0 0.375 0.625
 endloop
endfacet
facet normal 1.0 0.0 0.0
 outer loop
  vertex 1.0 0.25 0.5
  vertex 1.0 0.25 0.25
  vertex 1.0 0.375 0.375
 endloop
endfacet
facet normal 1.0 0.0 0.0
 outer loop
  vertex 1.0 0.375 0.625
  vertex 1.0 0.375 0.375
  vertex 1.0 0.5 0.5
 endloop
endfacet
facet normal 1.0 -0.0 0.0
 outer loop
  vertex 1.0 0.0 0.5000000000013305
  vertex 1.0 0.125 0.3750000000006652
  vertex 1.0 0.125 0.6250000000006652
 endloop
endfacet
facet normal 1.0 0.0 0.0
 outer loop
  vertex 1.0 0.125 0.3750000000006652
  vertex 1.0 0.25 0.5
  vertex 1.0 0.125 0.6250000000006652
 endloop
endfacet
facet normal 1.0 -0.0 0.0
 outer loop
  vertex 1.0 0.125 0.3750000000006652
  vertex 1.0 0.25 0.25
  vertex 1.0 0.25 0.5
 endloop
endfacet
facet normal 1.0 -0.0 0.0
 outer loop
  vertex 1.0 0.125 0.6250000000006652
  vertex 1.0 0.25 0.5
  vertex 1.0 0.25 0.75
 endloop
endfacet
facet normal 0.0 -1.0 0.0
 outer loop
  vertex 1.0 0.0 0.0
  vertex 0.875 0.0 0.125
  vertex 0.7500000000004128 0.0 0.0
 endloop
endfacet
facet normal -0.0 -1.0 0.0
 outer loop
  vertex 0.875 0.0 0.125
  vertex 0.6250000000006652 0.0 0.125
  vertex 0.7500000000004128 0.0 0.0
 endloop
endfacet
facet normal 0.0 -1.0 0.0
 outer loop
  vertex 0.875 0.0 0.125
  vertex 0.75 0.0 0.25
  vertex 0.6250000000006652 0.0 0.125
 endloop
endfacet
facet normal 0.0 -1.0 0.0
 outer loop
  vertex 0.7500000000004128 0.0 0.0
  vertex 0.6250000000006652 0.0 0.125
  vertex 0.5000000000013305 0.0 0.0
 endloop
endfacet
facet normal 0.0 -1.0 -0.0
 outer loop
  vertex 1.0 0.0 0.5000000000013305
  vertex 0.875 0.0 0.3750000000006652
  vertex 1.0 0.0 0.2500000000006652
 endloop
endfacet
facet normal 0.0 -1.0 0.0
 outer loop
  vertex 0.875 0.0 0.3750000000006652
  vertex 0.875 0.0 0.125
  vertex 1.0 0.0 0.2500000000006652
 endloop
endfacet
facet normal 0.0 -1.0 -0.0
 outer loop
  vertex 0.875 0.0 0.3750000000006652
  vertex 0.75 0.0 0.25
  vertex 0.875 0.0 0.125
 endloop
endfacet
facet normal 0.0 -1.0 -0.0
 outer loop
  vertex 1.0 0.0 0.2500000000006652
  vertex 0.875 0.0 0.125
  vertex 1.0 0.0 0.0
 endloop
endfacet
facet normal 0.0 -1.0 0.0
 outer loop
  vertex 0.5000000000013305 0.0 0.0
  vertex 0.3750000000006652 0.0 0.125
  vertex 0.2500000000006652 0.0 0.0
 endloop
endfacet
facet normal -0.0 -1.0 0.0
 outer loop
  vertex 0.3750000000006652 0.0 0.125
  vertex 0.125 0.0 0.125
  vertex 0.2500000000006652 0.0 0.0
 endloop
endfacet
facet normal 0.0 -1.0 0.0
 outer loop
  vertex 0.3750000000006652 0.0 0.125
  vertex 0.25 0.0 0.25
  vertex 0.125 0.0 0.125
 endloop
endfacet
facet normal 0.0 -1.0 0.0
 outer loop
  vertex 0.2500000000006652 0.0 0.0
  vertex 0.125 0.0 0.125
  vertex 0.0 0.0 0.0
 endloop
endfacet
facet normal -0.0 -1.0 0.0
 outer loop
  vertex 0.25 0.0 0.25
  vertex 0.125 0.0 0.3749999999993359
  vertex 0.125 0.0 0.125
 endloop
endfacet
facet normal 0.0 -1.0 -0.0
 outer loop
  vertex 0.125 0.0 0.3749999999993359
  vertex 0.0 0.0 0.2499999999994083
  vertex 0.125 0.0 0.125
 endloop
endfacet
facet normal -0.0 -1.0 0.0
 outer loop
  vertex 0.125 0.0 0.3749999999993359
  vertex 0.0 0.0 0.4999999999986718
  vertex 0.0 0.0 0.2499999999994083
 endloop
endfacet
facet normal -0.0 -1.0 0.0
 outer loop
  vertex 0.125 0.0 0.125
  vertex 0.0 0.0 0.2499999999994083
  vertex 0.0 0.0 0.0
 endloop
endfacet
facet normal 0.0 -1.0 0.0
 outer loop
  vertex 0.25 0.0 0.75
  vertex 0.3750000000006652 0.0 0.875
  vertex 0.125 0.0 0.875
 endloop
endfacet
facet normal 0.0 -1.0 0.0
 outer loop
  vertex 0.3750000000006652 0.0 0.875
  vertex 0.2500000000006652 0.0 1.0
  vertex 0.125 0.0 0.875
 endloop
endfacet
facet normal 0.0 -1.0 0.0
 outer loop
  vertex 0.3750000000006652 0.0 0.875
  vertex 0.5000000000013305 0.0 1.0
  vertex 0.2500000000006652 0.0 1.0
 endloop
endfacet
facet normal 0.0 -1.0 0.0
 outer loop
  vertex 0.125 0.0 0.875
  vertex 0.2500000000006652 0.0 1.0
  vertex 0.0 0.0 1.0
 endloop
endfacet
facet normal -0.0 -1.0 0.0
 outer loop
  vertex 0.25 0.0 0.75
  vertex 0.125 0.0 0.875
  vertex 0.125 0.0 0.6249999999993359
 endloop
endfacet
facet normal 0.0 -1.0 -0.0
 outer loop
  vertex 0.125 0.0 0.875
  vertex 0.0 0.0 0.7499999999993359
  vertex 0.125 0.0 0.6249999999993359
 endloop
endfacet
facet normal -0.0 -1.0 0.0
 outer loop
  vertex 0.125 0.0 0.875
  vertex 0.0 0.0 1.0
  vertex 0.0 0.0 0.7499999999993359
 endloop
endfacet
facet normal -0.0 -1.0 0.0
 outer loop
  vertex 0.125 0.0 0.6249999999993359
  vertex 0.0 0.0 0.7499999999993359
  vertex 0.0 0.0 0.4999999999986718
 endloop
endfacet
facet normal 0.0 -1.0 0.0
 outer loop
  vertex 0.75 0.0 0.75
  vertex 0.875 0.0 0.875
  vertex 0.6250000000006652 0.0 0.875
 endloop
endfacet
facet normal 0.0 -1.0 0.0
 outer loop
  vertex 0.875 0.0 0.875
  vertex 0.7500000000004128 0.0 1.0
  vertex 0.6250000000006652 0.0 0.875
 endloop
endfacet
facet normal 0.0 -1.0 0.0
 outer loop
  vertex 0.875 0.0 0.875
  vertex 1.0 0.0 1.0
  vertex 0.7500000000004128 0.0 1.0
 endloop
endfacet
facet normal 0.0 -1.0 0.0
 outer loop
  vertex 0.6250000000006652 0.0 0.875
  vertex 0.7500000000004128 0.0 1.0
  vertex 0.5000000000013305 0.0 1.0
 endloop
endfacet
facet normal 0.0 -1.0 -0.0
 outer loop
  vertex 1.0 0.0 1.0
  vertex 0.875 0.0 0.875
  vertex 1.0 0.0 0.7500000000004128
 endloop
endfacet
facet normal 0.0 -1.0 0.0
 outer loop
  vertex 0.875 0.0 0.875
  vertex 0.875 0.0 0.6250000000006652
  vertex 1.0 0.0 0.7500000000004128
 endloop
endfacet
facet normal 0.0 -1.0 -0.0
 outer loop
  vertex 0.875 0.0 0.875
  vertex 0.75 0.0 0.75
  vertex 0.875 0.0 0.6250000000006652
 endloop
endfacet
facet normal 0.0 -1.0 -0.0
 outer loop
  vertex 1.0 0.0 0.7500000000004128
  vertex 0.875 0.0 0.6250000000006652
  vertex 1.0 0.0 0.5000000000013305
 endloop
endfacet
facet normal 0.0 -1.0 0.0
 outer loop
  vertex 0.75 0.0 0.75
  vertex 0.6250000000006652 0.0 0.875
  vertex 0.5 0.0 0.75
 endloop
endfacet
facet normal -0.0 -1.0 0.0
 outer loop
  vertex 0.6250000000006652 0.0 0.875
  vertex 0.3750000000006652 0.0 0.875
  vertex 0.5 0.0 0.75
 endloop
endfacet
facet normal 0.0 -1.0 0.0
 outer loop
  vertex 0.6250000000006652 0.0 0.875
  vertex 0.5000000000013305 0.0 1.0
  vertex 0.3750000000006652 0.0 0.875
 endloop
endfacet
facet normal 0.0 -1.0 0.0
 outer loop
  vertex 0.5 0.0 0.75
  vertex 0.3750000000006652 0.0 0.875
  vertex 0.25 0.0 0.75
 endloop
endfacet
facet normal 0.0 -1.0 0.0
 outer loop
  vertex 0.5 0.0 0.5
  vertex 0.625 0.0 0.625
  vertex 0.375 0.0 0.625
 endloop
endfacet
facet normal 0.0 -1.0 0.0
 outer loop
  vertex 0.625 0.0 0.625
  vertex 0.5 0.0 0.75
  vertex 0.375 0.0 0.625
 endloop
endfacet
facet normal 0.0 -1.0 0.0
 outer loop
  vertex 0.625 0.0 0.625
  vertex 0.75 0.0 0.75
  vertex 0.5 0.0 0.75
 endloop
endfacet
facet normal 0.0 -1.0 0.0
 outer loop
  vertex 0.375 0.0 0.625
  vertex 0.5 0.0 0.75
  vertex 0.25 0.0 0.75
 endloop
endfacet
facet normal -0.0 -1.0 0.0
 outer loop
  vertex 0.5 0.0 0.5
  vertex 0.375 0.0 0.625
  vertex 0.375 0.0 0.375
 endloop
endfacet
facet normal 0.0 -1.0 -0.0
 outer loop
  vertex 0.375 0.0 0.625
  vertex 0.25 0.0 0.5
  vertex 0.375 0.0 0.375
 endloop
endfacet
facet normal -0.0 -1.0 0.0
 outer loop
  vertex 0.375 0.0 0.625
  vertex 0.25 0.0 0.75
  vertex 0.25 0.0 0.5
 endloop
endfacet
facet normal -0.0 -1.0 0.0
 outer loop
  vertex 0.375 0.0 0.375
  vertex 0.25 0.0 0.5
  vertex 0.25 0.0 0.25
 endloop
endfacet
facet normal 0.0 -1.0 -0.0
 outer loop
  vertex 0.25 0.0 0.75
  vertex 0.125 0.0 0.6249999999993359
  vertex 0.25 0.0 0.5
 endloop
endfacet
facet normal 0.0 -1.0 0.0
 outer loop
  vertex 0.125 0.0 0.6249999999993359
  vertex 0.125 0.0 0.3749999999993359
  vertex 0.25 0.0 0.5
 endloop
endfacet
facet normal 0.0 -1.0 -0.0
 outer loop
  vertex 0.125 0.0 0.6249999999993359
  vertex 0.0 0.0 0.4999999999986718
  vertex 0.125 0.0 0.3749999999993359
 endloop
endfacet
facet normal 0.0 -1.0 -0.0
 outer loop
  vertex 0.25 0.0 0.5
  vertex 0.125 0.0 0.3749999999993359
  vertex 0.25 0.0 0.25
 endloop
endfacet
facet normal 0.0 -1.0 -0.0
 outer loop
  vertex 0.75 0.0 0.75
  vertex 0.625 0.0 0.625
  vertex 0.75 0.0 0.5
 endloop
endfacet
facet normal 0.0 -1.0 0.0
 outer loop
  vertex 0.625 0.0 0.625
  vertex 0.625 0.0 0.375
  vertex 0.75 0.0 0.5
 endloop
endfacet
facet normal 0.0 -1.0 -0.0
 outer loop
  vertex 0.625 0.0 0.625
  vertex 0.5 0.0 0.5
  vertex 0.625 0.0 0.375
 endloop
endfacet
facet normal 0.0 -1.0 -0.0
 outer loop
  vertex 0.75 0.0 0.5
  vertex 0.625 0.0 0.375
  vertex 0.75 0.0 0.25
 endloop
endfacet
facet normal 0.0 -1.0 0.0
 outer loop
  vertex 0.75 0.0 0.75
  vertex 0.75 0.0 0.5
  vertex 0.875 0.0 0.6250000000006652
 endloop
endfacet
facet normal 0.0 -1.0 0.0
 outer loop
  vertex 0.75 0.0 0.5
  vertex 0.875 0.0 0.3750000000006652
  vertex 0.875 0.0 0.6250000000006652
 endloop
endfacet
facet normal 0.0 -1.0 0.0
 outer loop
  vertex 0.75 0.0 0.5
  vertex 0.75 0.0 0.25
  vertex 0.875 0.0 0.3750000000006652
 endloop
endfacet
facet normal 0.0 -1.0 0.0
 outer loop
  vertex 0.875 0.0 0.6250000000006652
  vertex 0.875 0.0 0.3750000000006652
  vertex 1.0 0.0 0.5000000000013305
 endloop
endfacet
facet normal -0.0 -1.0 0.0
 outer loop
  vertex 0.75 0.0 0.25
  vertex 0.5 0.0 0.25
  vertex 0.6250000000006652 0.0 0.125
 endloop
endfacet
facet normal 0.0 -1.0 -0.0
 outer loop
  vertex 0.5 0.0 0.25
  vertex 0.3750000000006652 0.0 0.125
  vertex 0.6250000000006652 0.0 0.125
 endloop
endfacet
facet normal -0.0 -1.0 0.0
 outer loop
  vertex 0.5 0.0 0.25
  vertex 0.25 0.0 0.25
  vertex 0.3750000000006652 0.0 0.125
 endloop
endfacet
facet normal -0.0 -1.0 0.0
 outer loop
  vertex 0.6250000000006652 0.0 0.125
  vertex 0.3750000000006652 0.0 0.125
  vertex 0.5000000000013305 0.0 0.0
 endloop
endfacet
facet normal 0.0 -1.0 0.0
 outer loop
  vertex 0.75 0.0 0.25
  vertex 0.625 0.0 0.375
  vertex 0.5 0.0 0.25
 endloop
endfacet
facet normal -0.0 -1.0 0.0
 outer loop
  vertex 0.625 0.0 0.375
  vertex 0.375 0.0 0.375
  vertex 0.5 0.0 0.25
 endloop
endfacet
facet normal 0.0 -1.0 0.0
 outer loop
  vertex 0.625 0.0 0.375
  vertex 0.5 0.0 0.5
  vertex 0.375 0.0 0.375
 endloop
endfacet
facet normal 0.0 -1.0 0.0
 outer loop
  vertex 0.5 0.0 0.25
  vertex 0.375 0.0 0.375
  vertex 0.25 0.0 0.25
 endloop
endfacet
facet normal 1.0 0.0 0.0
 outer loop
  vertex 0.0 1.0 1.0
  vertex 0.0 0.7500000000004128 1.0
  vertex 0.0 0.875 0.875
 endloop
endfacet
facet normal 1.0 0.0 0.0
 outer loop
  vertex 0.0 0.7500000000004128 1.0
  vertex 0.0 0.6250000000006652 0.875
  vertex 0.0 0.875 0.875
 endloop
endfacet
facet normal 1.0 0.0 0.0
 outer loop
  vertex 0.0 0.7500000000004128 1.0
  vertex 0.0 0.5000000000013305 1.0
  vertex 0.0 0.6250000000006652 0.875
 endloop
endfacet
facet normal 1.0 0.0 0.0
 outer loop
  vertex 0.0 0.875 0.875
  vertex 0.0 0.6250000000006652 0.875
  vertex 0.0 0.75 0.75
 endloop
endfacet
facet normal 1.0 -0.0 0.0
 outer loop
  vertex 0.0 0.75 0.75
  vertex 0.0 0.875 0.6249999999993359
  vertex 0.0 0.875 0.875
 endloop
endfacet
facet normal 1.0 0.0 0.0
 outer loop
  vertex 0.0 0.875 0.6249999999993359
  vertex 0.0 1.0 0.7499999999993359
  vertex 0.0 0.875 0.875
 endloop
endfacet
facet normal 1.0 -0.0 0.0
 outer loop
  vertex 0.0 0.875 0.6249999999993359
  vertex 0.0 1.0 0.4999999999986718
  vertex 0.0 1.0 0.7499999999993359
 endloop
endfacet
facet normal 1.0 -0.0 0.0
 outer loop
  vertex 0.0 0.875 0.875
  vertex 0.0 1.0 0.7499999999993359
  vertex 0.0 1.0 1.0
 endloop
endfacet
facet normal 1.0 -0.0 0.0
 outer loop
  vertex 0.0 0.75 0.25
  vertex 0.0 0.875 0.125
  vertex 0.0 0.875 0.3749999999993359
 endloop
endfacet
facet normal 1.0 0.0 0.0
 outer loop
  vertex 0.0 0.875 0.125
  vertex 0.0 1.0 0.2499999999994083
  vertex 0.0 0.875 0.3749999999993359
 endloop
endfacet
facet normal 1.0 -0.0 0.0
 outer loop
  vertex 0.0 0.875 0.125
  vertex 0.0 1.0 0.0
  vertex 0.0 1.0 0.2499999999994083
 endloop
endfacet
facet normal 1.0 -0.0 0.0
 outer loop
  vertex 0.0 0.875 0.3749999999993359
  vertex 0.0 1.0 0.2499999999994083
  vertex 0.0 1.0 0.4999999999986718
 endloop
endfacet
facet normal 1.0 0.0 0.0
 outer loop
  vertex 0.0 0.75 0.25
  vertex 0.0 0.6249999999993359 0.125
  vertex 0.0 0.875 0.125
 endloop
endfacet
facet normal 1.0 -0.0 0.0
 outer loop
  vertex 0.0 0.6249999999993359 0.125
  vertex 0.0 0.7499999999993359 0.0
  vertex 0.0 0.875 0.125
 endloop
endfacet
facet normal 1.0 0.0 0.0
 outer loop
  vertex 0.0 0.6249999999993359 0.125
  vertex 0.0 0.4999999999986718 0.0
  vertex 0.0 0.7499999999993359 0.0
 endloop
endfacet
facet normal 1.0 0.0 0.0
 outer loop
  vertex 0.0 0.875 0.125
  vertex 0.0 0.7499999999993359 0.0
  vertex 0.0 1.0 0.0
 endloop
endfacet
facet normal 1.0 0.0 0.0
 outer loop
  vertex 0.0 0.25 0.25
  vertex 0.0 0.125 0.125
  vertex 0.0 0.3749999999993359 0.125
 endloop
endfacet
facet normal 1.0 -0.0 0.0
 outer loop
  vertex 0.0 0.125 0.125
  vertex 0.0 0.2499999999994083 0.0
  vertex 0.0 0.3749999999993359 0.125
 endloop
endfacet
facet normal 1.0 0.0 0.0
 outer loop
  vertex 0.0 0.125 0.125
  vertex 0.0 0.0 0.0
  vertex 0.0 0.2499999999994083 0.0
 endloop
endfacet
facet normal 1.0 0.0 0.0
 outer loop
  vertex 0.0 0.3749999999993359 0.125
  vertex 0.0 0.2499999999994083 0.0
  vertex 0.0 0.4999999999986718 0.0
 endloop
endfacet
facet normal 1.0 0.0 0.0
 outer loop
  vertex 0.0 0.0 0.4999999999986718
  vertex 0.0 0.0 0.2499999999994083
  vertex 0.0 0.125 0.3749999999993359
 endloop
endfacet
facet normal 1.0 -0.0 0.0
 outer loop
  vertex 0.0 0.0 0.2499999999994083
  vertex 0.0 0.125 0.125
  vertex 0.0 0.125 0.3749999999993359
 endloop
endfacet
facet normal 1.0 0.0 0.0
 outer loop
  vertex 0.0 0.0 0.2499999999994083
  vertex 0.0 0.0 0.0
  vertex 0.0 0.125 0.125
 endloop
endfacet
facet normal 1.0 0.0 0.0
 outer loop
  vertex 0.0 0.125 0.3749999999993359
  vertex 0.0 0.125 0.125
  vertex 0.0 0.25 0.25
 endloop
endfacet
facet normal 1.0 0.0 0.0
 outer loop
  vertex 0.0 0.5000000000013305 1.0
  vertex 0.0 0.2500000000006652 1.0
  vertex 0.0 0.3750000000006652 0.875
 endloop
endfacet
facet normal 1.0 0.0 0.0
 outer loop
  vertex 0.0 0.2500000000006652 1.0
  vertex 0.0 0.125 0.875
  vertex 0.0 0.3750000000006652 0.875
 endloop
endfacet
facet normal 1.0 0.0 0.0
 outer loop
  vertex 0.0 0.2500000000006652 1.0
  vertex 0.0 0.0 1.0
  vertex 0.0 0.125 0.875
 endloop
endfacet
facet normal 1.0 0.0 0.0
 outer loop
  vertex 0.0 0.3750000000006652 0.875
  vertex 0.0 0.125 0.875
  vertex 0.0 0.25 0.75
 endloop
endfacet
facet normal 1.0 0.0 0.0
 outer loop
  vertex 0.0 0.0 1.0
  vertex 0.0 0.0 0.7499999999993359
  vertex 0.0 0.125 0.875
 endloop
endfacet
facet normal 1.0 -0.0 0.0
 outer loop
  vertex 0.0 0.0 0.7499999999993359
  vertex 0.0 0.125 0.6249999999993359
  vertex 0.0 0.125 0.875
 endloop
endfacet
facet normal 1.0 0.0 0.0
 outer loop
  vertex 0.0 0.0 0.7499999999993359
  vertex 0.0 0.0 0.4999999999986718
  vertex 0.0 0.125 0.6249999999993359
 endloop
endfacet
facet normal 1.0 0.0 0.0
 outer loop
  vertex 0.0 0.125 0.875
  vertex 0.0 0.125 0.6249999999993359
  vertex 0.0 0.25 0.75
 endloop
endfacet
facet normal 1.0 0.0 0.0
 outer loop
  vertex 0.0 0.25 0.75
  vertex 0.0 0.25 0.5
  vertex 0.0 0.375 0.625
 endloop
endfacet
facet normal 1.0 -0.0 0.0
 outer loop
  vertex 0.0 0.25 0.5
  vertex 0.0 0.375 0.375
  vertex 0.0 0.375 0.625
 endloop
endfacet
facet normal 1.0 0.0 0.0
 outer loop
  vertex 0.0 0.25 0.5
  vertex 0.0 0.25 0.25
  vertex 0.0 0.375 0.375
 endloop
endfacet
facet normal 1.0 0.0 0.0
 outer loop
  vertex 0.0 0.375 0.625
  vertex 0.0 0.375 0.375
  vertex 0.0 0.5 0.5
 endloop
endfacet
facet normal 1.0 -0.0 0.0
 outer loop
  vertex 0.0 0.0 0.4999999999986718
  vertex 0.0 0.125 0.3749999999993359
  vertex 0.0 0.125 0.6249999999993359
 endloop
endfacet
facet normal 1.0 0.0 0.0
 outer loop
  vertex 0.0 0.125 0.3749999999993359
  vertex 0.0 0.25 0.5
  vertex 0.0 0.125 0.6249999999993359
 endloop
endfacet
facet normal 1.0 -0.0 0.0
 outer loop
  vertex 0.0 0.125 0.3749999999993359
  vertex 0.0 0.25 0.25
  vertex 0.0 0.25 0.5
 endloop
endfacet
facet normal 1.0 -0.0 0.0
 outer loop
  vertex 0.0 0.125 0.6249999999993359
  vertex 0.0 0.25 0.5
  vertex 0.0 0.25 0.75
 endloop
endfacet
facet normal 1.0 -0.0 0.0
 outer loop
  vertex 0.0 0.25 0.25
  vertex 0.0 0.3749999999993359 0.125
  vertex 0.0 0.5 0.25
 endloop
endfacet
facet normal 1.0 0.0 0.0
 outer loop
  vertex 0.0 0.3749999999993359 0.125
  vertex 0.0 0.6249999999993359 0.125
  vertex 0.0 0.5 0.25
 endloop
endfacet
facet normal 1.0 -0.0 0.0
 outer loop
  vertex 0.0 0.3749999999993359 0.125
  vertex 0.0 0.4999999999986718 0.0
  vertex 0.0 0.6249999999993359 0.125
 endloop
endfacet
facet normal 1.0 -0.0 0.0
 outer loop
  vertex 0.0 0.5 0.25
  vertex 0.0 0.6249999999993359 0.125
  vertex 0.0 0.75 0.25
 endloop
endfacet
facet normal 1.0 0.0 0.0
 outer loop
  vertex 0.0 0.5 0.5
  vertex 0.0 0.375 0.375
  vertex 0.0 0.625 0.375
 endloop
endfacet
facet normal 1.0 -0.0 0.0
 outer loop
  vertex 0.0 0.375 0.375
  vertex 0.0 0.5 0.25
  vertex 0.0 0.625 0.375
 endloop
endfacet
facet normal 1.0 0.0 0.0
 outer loop
  vertex 0.0 0.375 0.375
  vertex 0.0 0.25 0.25
  vertex 0.0 0.5 0.25
 endloop
endfacet
facet normal 1.0 0.0 0.0
 outer loop
  vertex 0.0 0.625 0.375
  vertex 0.0 0.5 0.25
  vertex 0.0 0.75 0.25
 endloop
endfacet
facet normal 1.0 0.0 0.0
 outer loop
  vertex 0.0 0.5000000000013305 1.0
  vertex 0.0 0.3750000000006652 0.875
  vertex 0.0 0.6250000000006652 0.875
 endloop
endfacet
facet normal 1.0 -0.0 0.0
 outer loop
  vertex 0.0 0.3750000000006652 0.875
  vertex 0.0 0.5 0.75
  vertex 0.0 0.6250000000006652 0.875
 endloop
endfacet
facet normal 1.0 0.0 0.0
 outer loop
  vertex 0.0 0.3750000000006652 0.875
  vertex 0.0 0.25 0.75
  vertex 0.0 0.5 0.75
 endloop
endfacet
facet normal 1.0 0.0 0.0
 outer loop
  vertex 0.0 0.6250000000006652 0.875
  vertex 0.0 0.5 0.75
  vertex 0.0 0.75 0.75
 endloop
endfacet
facet normal 1.0 0.0 0.0
 outer loop
  vertex 0.0 0.75 0.75
  vertex 0.0 0.5 0.75
  vertex 0.0 0.625 0.625
 endloop
endfacet
facet normal 1.0 0.0 0.0
 outer loop
  vertex 0.0 0.5 0.75
  vertex 0.0 0.375 0.625
  vertex 0.0 0.625 0.625
 endloop
endfacet
facet normal 1.0 0.0 0.0
 outer loop
  vertex 0.0 0.5 0.75
  vertex 0.0 0.25 0.75
  vertex 0.0 0.375 0.625
 endloop
endfacet
facet normal 1.0 0.0 0.0
 outer loop
  vertex 0.0 0.625 0.625
  vertex 0.0 0.375 0.625
  vertex 0.0 0.5 0.5
 endloop
endfacet
facet normal 1.0 0.0 0.0
 outer loop
  vertex 0.0 0.75 0.25
  vertex 0.0 0.875 0.3749999999993359
  vertex 0.0 0.75 0.5
 endloop
endfacet
facet normal 1.0 0.0 -0.0
 outer loop
  vertex 0.0 0.875 0.3749999999993359
  vertex 0.0 0.875 0.6249999999993359
  vertex 0.0 0.75 0.5
 endloop
endfacet
facet normal 1.0 0.0 0.0
 outer loop
  vertex 0.0 0.875 0.3749999999993359
  vertex 0.0 1.0 0.4999999999986718
  vertex 0.0 0.875 0.6249999999993359
 endloop
endfacet
facet normal 1.0 0.0 0.0
 outer loop
  vertex 0.0 0.75 0.5
  vertex 0.0 0.875 0.6249999999993359
  vertex 0.0 0.75 0.75
 endloop
endfacet
facet normal 1.0 -0.0 0.0
 outer loop
  vertex 0.0 0.5 0.5
  vertex 0.0 0.625 0.375
  vertex 0.0 0.625 0.625
 endloop
endfacet
facet normal 1.0 0.0 0.0
 outer loop
  vertex 0.0 0.625 0.375
  vertex 0.0 0.75 0.5
  vertex 0.0 0.625 0.625
 endloop
endfacet
facet normal 1.0 -0.0 0.0
 outer loop
  vertex 0.0 0.625 0.375
  vertex 0.0 0.75 0.25
  vertex 0.0 0.75 0.5
 endloop
endfacet
facet normal 1.0 -0.0 0.0
 outer loop
  vertex 0.0 0.625 0.625
  vertex 0.0 0.75 0.5
  vertex 0.0 0.75 0.75
 endloop
endfacet
facet normal 0.0 0.0 -1.0
 outer loop
  vertex 0.25 0.75 1.0
  vertex 0.125 0.875 1.0
  vertex 0.3749999999993359 0.875 1.0
 endloop
endfacet
facet normal 0.0 0.0 -1.0
 outer loop
  vertex 0.125 0.875 1.0
  vertex 0.2499999999994083 1.0 1.0
  vertex 0.3749999999993359 0.875 1.0
 endloop
endfacet
facet normal 0.0 0.0 -1.0
 outer loop
  vertex 0.125 0.875 1.0
  vertex 0.0 1.0 1.0
  vertex 0.2499999999994083 1.0 1.0
 endloop
endfacet
facet normal 0.0 0.0 -1.0
 outer loop
  vertex 0.3749999999993359 0.875 1.0
  vertex 0.2499999999994083 1.0 1.0
  vertex 0.4999999999986718 1.0 1.0
 endloop
endfacet
facet normal -0.0 0.0 -1.0
 outer loop
  vertex 0.25 0.75 1.0
  vertex 0.125 0.6250000000006652 1.0
  vertex 0.125 0.875 1.0
 endloop
endfacet
facet normal 0.0 0.0 -1.0
 outer loop
  vertex 0.125 0.6250000000006652 1.0
  vertex 0.0 0.7500000000004128 1.0
  vertex 0.125 0.875 1.0
 endloop
endfacet
facet normal -0.0 0.0 -1.0
 outer loop
  vertex 0.125 0.6250000000006652 1.0
  vertex 0.0 0.5000000000013305 1.0
  vertex 0.0 0.7500000000004128 1.0
 endloop
endfacet
facet normal -0.0 0.0 -1.0
 outer loop
  vertex 0.125 0.875 1.0
  vertex 0.0 0.7500000000004128 1.0
  vertex 0.0 1.0 1.0
 endloop
endfacet
facet normal -0.0 0.0 -1.0
 outer loop
  vertex 0.25 0.25 1.0
  vertex 0.125 0.125 1.0
  vertex 0.125 0.3750000000006652 1.0
 endloop
endfacet
facet normal 0.0 0.0 -1.0
 outer loop
  vertex 0.125 0.125 1.0
  vertex 0.0 0.2500000000006652 1.0
  vertex 0.125 0.3750000000006652 1.0
 endloop
endfacet
facet normal -0.0 0.0 -1.0
 outer loop
  vertex 0.125 0.125 1.0
  vertex 0.0 0.0 1.0
  vertex 0.0 0.2500000000006652 1.0
 endloop
endfacet
facet normal -0.0 0.0 -1.0
 outer loop
  vertex 0.125 0.3750000000006652 1.0
  vertex 0.0 0.2500000000006652 1.0
  vertex 0.0 0.5000000000013305 1.0
 endloop
endfacet
facet normal 0.0 0.0 -1.0
 outer loop
  vertex 0.5000000000013305 0.0 1.0
  vertex 0.2500000000006652 0.0 1.0
  vertex 0.3750000000006652 0.125 1.0
 endloop
endfacet
facet normal 0.0 0.0 -1.0
 outer loop
  vertex 0.2500000000006652 0.0 1.0
  vertex 0.125 0.125 1.0
  vertex 0.3750000000006652 0.125 1.0
 endloop
endfacet
facet normal 0.0 0.0 -1.0
 outer loop
  vertex 0.2500000000006652 0.0 1.0
  vertex 0.0 0.0 1.0
  vertex 0.125 0.125 1.0
 endloop
endfacet
facet normal 0.0 0.0 -1.0
 outer loop
  vertex 0.3750000000006652 0.125 1.0
  vertex 0.125 0.125 1.0
  vertex 0.25 0.25 1.0
 endloop
endfacet
facet normal 0.0 -0.0 -1.0
 outer loop
  vertex 1.0 0.5000000000013305 1.0
  vertex 1.0 0.2500000000006652 1.0
  vertex 0.875 0.3750000000006652 1.0
 endloop
endfacet
facet normal -0.0 0.0 -1.0
 outer loop
  vertex 1.0 0.2500000000006652 1.0
  vertex 0.875 0.125 1.0
  vertex 0.875 0.3750000000006652 1.0
 endloop
endfacet
facet normal 0.0 -0.0 -1.0
 outer loop
  vertex 1.0 0.2500000000006652 1.0
  vertex 1.0 0.0 1.0
  vertex 0.875 0.125 1.0
 endloop
endfacet
facet normal 0.0 -0.0 -1.0
 outer loop
  vertex 0.875 0.3750000000006652 1.0
  vertex 0.875 0.125 1.0
  vertex 0.75 0.25 1.0
 endloop
endfacet
facet normal 0.0 0.0 -1.0
 outer loop
  vertex 1.0 0.0 1.0
  vertex 0.7500000000004128 0.0 1.0
  vertex 0.875 0.125 1.0
 endloop
endfacet
facet normal 0.0 0.0 -1.0
 outer loop
  vertex 0.7500000000004128 0.0 1.0
  vertex 0.6250000000006652 0.125 1.0
  vertex 0.875 0.125 1.0
 endloop
endfacet
facet normal 0.0 0.0 -1.0
 outer loop
  vertex 0.7500000000004128 0.0 1.0
  vertex 0.5000000000013305 0.0 1.0
  vertex 0.6250000000006652 0.125 1.0
 endloop
endfacet
facet normal 0.0 0.0 -1.0
 outer loop
  vertex 0.875 0.125 1.0
  vertex 0.6250000000006652 0.125 1.0
  vertex 0.75 0.25 1.0
 endloop
endfacet
facet normal 0.0 0.0 -1.0
 outer loop
  vertex 0.75 0.75 1.0
  vertex 0.6249999999993359 0.875 1.0
  vertex 0.875 0.875 1.0
 endloop
endfacet
facet normal 0.0 0.0 -1.0
 outer loop
  vertex 0.6249999999993359 0.875 1.0
  vertex 0.7499999999993359 1.0 1.0
  vertex 0.875 0.875 1.0
 endloop
endfacet
facet normal 0.0 0.0 -1.0
 outer loop
  vertex 0.6249999999993359 0.875 1.0
  vertex 0.4999999999986718 1.0 1.0
  vertex 0.7499999999993359 1.0 1.0
 endloop
endfacet
facet normal 0.0 0.0 -1.0
 outer loop
  vertex 0.875 0.875 1.0
  vertex 0.7499999999993359 1.0 1.0
  vertex 1.0 1.0 1.0
 endloop
endfacet
facet normal 0.0 -0.0 -1.0
 outer loop
  vertex 1.0 1.0 1.0
  vertex 1.0 0.7500000000004128 1.0
  vertex 0.875 0.875 1.0
 endloop
endfacet
facet normal -0.0 0.0 -1.0
 outer loop
  vertex 1.0 0.7500000000004128 1.0
  vertex 0.875 0.6250000000006652 1.0
  vertex 0.875 0.875 1.0
 endloop
endfacet
facet normal 0.0 -0.0 -1.0
 outer loop
  vertex 1.0 0.7500000000004128 1.0
  vertex 1.0 0.5000000000013305 1.0
  vertex 0.875 0.6250000000006652 1.0
 endloop
endfacet
facet normal 0.0 -0.0 -1.0
 outer loop
  vertex 0.875 0.875 1.0
  vertex 0.875 0.6250000000006652 1.0
  vertex 0.75 0.75 1.0
 endloop
endfacet
facet normal -0.0 0.0 -1.0
 outer loop
  vertex 1.0 0.5000000000013305 1.0
  vertex 0.875 0.3750000000006652 1.0
  vertex 0.875 0.6250000000006652 1.0
 endloop
endfacet
facet normal 0.0 0.0 -1.0
 outer loop
  vertex 0.875 0.3750000000006652 1.0
  vertex 0.75 0.5 1.0
  vertex 0.875 0.6250000000006652 1.0
 endloop
endfacet
facet normal -0.0 0.0 -1.0
 outer loop
  vertex 0.875 0.3750000000006652 1.0
  vertex 0.75 0.25 1.0
  vertex 0.75 0.5 1.0
 endloop
endfacet
facet normal -0.0 0.0 -1.0
 outer loop
  vertex 0.875 0.6250000000006652 1.0
  vertex 0.75 0.5 1.0
  vertex 0.75 0.75 1.0
 endloop
endfacet
facet normal 0.0 -0.0 -1.0
 outer loop
  vertex 0.75 0.75 1.0
  vertex 0.75 0.5 1.0
  vertex 0.625 0.625 1.0
 endloop
endfacet
facet normal -0.0 0.0 -1.0
 outer loop
  vertex 0.75 0.5 1.0
  vertex 0.625 0.375 1.0
  vertex 0.625 0.625 1.0
 endloop
endfacet
facet normal 0.0 -0.0 -1.0
 outer loop
  vertex 0.75 0.5 1.0
  vertex 0.75 0.25 1.0
  vertex 0.625 0.375 1.0
 endloop
endfacet
facet normal 0.0 -0.0 -1.0
 outer loop
  vertex 0.625 0.625 1.0
  vertex 0.625 0.375 1.0
  vertex 0.5 0.5 1.0
 endloop
endfacet
facet normal 0.0 0.0 -1.0
 outer loop
  vertex 0.5000000000013305 0.0 1.0
  vertex 0.3750000000006652 0.125 1.0
  vertex 0.6250000000006652 0.125 1.0
 endloop
endfacet
facet normal 0.0 0.0 -1.0
 outer loop
  vertex 0.3750000000006652 0.125 1.0
  vertex 0.5 0.25 1.0
  vertex 0.6250000000006652 0.125 1.0
 endloop
endfacet
facet normal 0.0 0.0 -1.0
 outer loop
  vertex 0.3750000000006652 0.125 1.0
  vertex 0.25 0.25 1.0
  vertex 0.5 0.25 1.0
 endloop
endfacet
facet normal 0.0 0.0 -1.0
 outer loop
  vertex 0.6250000000006652 0.125 1.0
  vertex 0.5 0.25 1.0
  vertex 0.75 0.25 1.0
 endloop
endfacet
facet normal 0.0 0.0 -1.0
 outer loop
  vertex 0.75 0.25 1.0
  vertex 0.5 0.25 1.0
  vertex 0.625 0.375 1.0
 endloop
endfacet
facet normal 0.0 0.0 -1.0
 outer loop
  vertex 0.5 0.25 1.0
  vertex 0.375 0.375 1.0
  vertex 0.625 0.375 1.0
 endloop
endfacet
facet normal 0.0 0.0 -1.0
 outer loop
  vertex 0.5 0.25 1.0
  vertex 0.25 0.25 1.0
  vertex 0.375 0.375 1.0
 endloop
endfacet
facet normal 0.0 0.0 -1.0
 outer loop
  vertex 0.625 0.375 1.0
  vertex 0.375 0.375 1.0
  vertex 0.5 0.5 1.0
 endloop
endfacet
facet normal 0.0 0.0 -1.0
 outer loop
  vertex 0.25 0.75 1.0
  vertex 0.3749999999993359 0.875 1.0
  vertex 0.5 0.75 1.0
 endloop
endfacet
facet normal 0.0 0.0 -1.0
 outer loop
  vertex 0.3749999999993359 0.875 1.0
  vertex 0.6249999999993359 0.875 1.0
  vertex 0.5 0.75 1.0
 endloop
endfacet
facet normal 0.0 0.0 -1.0
 outer loop
  vertex 0.3749999999993359 0.875 1.0
  vertex 0.4999999999986718 1.0 1.0
  vertex 0.6249999999993359 0.875 1.0
 endloop
endfacet
facet normal 0.0 0.0 -1.0
 outer loop
  vertex 0.5 0.75 1.0
  vertex 0.6249999999993359 0.875 1.0
  vertex 0.75 0.75 1.0
 endloop
endfacet
facet normal 0.0 0.0 -1.0
 outer loop
  vertex 0.5 0.5 1.0
  vertex 0.375 0.625 1.0
  vertex 0.625 0.625 1.0
 endloop
endfacet
facet normal 0.0 0.0 -1.0
 outer loop
  vertex 0.375 0.625 1.0
  vertex 0.5 0.75 1.0
  vertex 0.625 0.625 1.0
 endloop
endfacet
facet normal 0.0 0.0 -1.0
 outer loop
  vertex 0.375 0.625 1.0
  vertex 0.25 0.75 1.0
  vertex 0.5 0.75 1.0
 endloop
endfacet
facet normal 0.0 0.0 -1.0
 outer loop
  vertex 0.625 0.625 1.0
  vertex 0.5 0.75 1.0
  vertex 0.75 0.75 1.0
 endloop
endfacet
facet normal 0.0 0.0 -1.0
 outer loop
  vertex 0.25 0.25 1.0
  vertex 0.125 0.3750000000006652 1.0
  vertex 0.25 0.5 1.0
 endloop
endfacet
facet normal 0.0 0.0 -1.0
 outer loop
  vertex 0.125 0.3750000000006652 1.0
  vertex 0.125 0.6250000000006652 1.0
  vertex 0.25 0.5 1.0
 endloop
endfacet
facet normal 0.0 0.0 -1.0
 outer loop
  vertex 0.125 0.3750000000006652 1.0
  vertex 0.0 0.5000000000013305 1.0
  vertex 0.125 0.6250000000006652 1.0
 endloop
endfacet
facet normal 0.0 0.0 -1.0
 outer loop
  vertex 0.25 0.5 1.0
  vertex 0.125 0.6250000000006652 1.0
  vertex 0.25 0.75 1.0
 endloop
endfacet
facet normal -0.0 0.0 -1.0
 outer loop
  vertex 0.5 0.5 1.0
  vertex 0.375 0.375 1.0
  vertex 0.375 0.625 1.0
 endloop
endfacet
facet normal 0.0 0.0 -1.0
 outer loop
  vertex 0.375 0.375 1.0
  vertex 0.25 0.5 1.0
  vertex 0.375 0.625 1.0
 endloop
endfacet
facet normal -0.0 0.0 -1.0
 outer loop
  vertex 0.375 0.375 1.0
  vertex 0.25 0.25 1.0
  vertex 0.25 0.5 1.0
 endloop
endfacet
facet normal -0.0 0.0 -1.0
 outer loop
  vertex 0.375 0.625 1.0
  vertex 0.25 0.5 1.0
  vertex 0.25 0.75 1.0
 endloop
endfacet
facet normal 0.0 0.0 -1.0
 outer loop
  vertex 0.25 0.75 0.0
  vertex 0.125 0.875 0.0
  vertex 0.3749999999993359 0.875 0.0
 endloop
endfacet
facet normal 0.0 0.0 -1.0
 outer loop
  vertex 0.125 0.875 0.0
  vertex 0.2499999999994083 1.0 0.0
  vertex 0.3749999999993359 0.875 0.0
 endloop
endfacet
facet normal 0.0 0.0 -1.0
 outer loop
  vertex 0.125 0.875 0.0
  vertex 0.0 1.0 0.0
  vertex 0.2499999999994083 1.0 0.0
 endloop
endfacet
facet normal 0.0 0.0 -1.0
 outer loop
  vertex 0.3749999999993359 0.875 0.0
  vertex 0.2499999999994083 1.0 0.0
  vertex 0.4999999999986718 1.0 0.0
 endloop
endfacet
facet normal -0.0 0.0 -1.0
 outer loop
  vertex 0.25 0.75 0.0
  vertex 0.125 0.6249999999993359 0.0
  vertex 0.125 0.875 0.0
 endloop
endfacet
facet normal 0.0 0.0 -1.0
 outer loop
  vertex 0.125 0.6249999999993359 0.0
  vertex 0.0 0.7499999999993359 0.0
  vertex 0.125 0.875 0.0
 endloop
endfacet
facet normal -0.0 0.0 -1.0
 outer loop
  vertex 0.125 0.6249999999993359 0.0
  vertex 0.0 0.4999999999986718 0.0
  vertex 0.0 0.7499999999993359 0.0
 endloop
endfacet
facet normal -0.0 0.0 -1.0
 outer loop
  vertex 0.125 0.875 0.0
  vertex 0.0 0.7499999999993359 0.0
  vertex 0.0 1.0 0.0
 endloop
endfacet
facet normal 0.0 -0.0 -1.0
 outer loop
  vertex 1.0 0.4999999999986718 0.0
  vertex 1.0 0.2499999999994083 0.0
  vertex 0.875 0.3749999999993359 0.0
 endloop
endfacet
facet normal -0.0 0.0 -1.0
 outer loop
  vertex 1.0 0.2499999999994083 0.0
  vertex 0.875 0.125 0.0
  vertex 0.875 0.3749999999993359 0.0
 endloop
endfacet
facet normal 0.0 -0.0 -1.0
 outer loop
  vertex 1.0 0.2499999999994083 0.0
  vertex 1.0 0.0 0.0
  vertex 0.875 0.125 0.0
 endloop
endfacet
facet normal 0.0 -0.0 -1.0
 outer loop
  vertex 0.875 0.3749999999993359 0.0
  vertex 0.875 0.125 0.0
  vertex 0.75 0.25 0.0
 endloop
endfacet
facet normal 0.0 0.0 -1.0
 outer loop
  vertex 1.0 0.0 0.0
  vertex 0.7500000000004128 0.0 0.0
  vertex 0.875 0.125 0.0
 endloop
endfacet
facet normal 0.0 0.0 -1.0
 outer loop
  vertex 0.7500000000004128 0.0 0.0
  vertex 0.6250000000006652 0.125 0.0
  vertex 0.875 0.125 0.0
 endloop
endfacet
facet normal 0.0 0.0 -1.0
 outer loop
  vertex 0.7500000000004128 0.0 0.0
  vertex 0.5000000000013305 0.0 0.0
  vertex 0.6250000000006652 0.125 0.0
 endloop
endfacet
facet normal 0.0 0.0 -1.0
 outer loop
  vertex 0.875 0.125 0.0
  vertex 0.6250000000006652 0.125 0.0
  vertex 0.75 0.25 0.0
 endloop
endfacet
facet normal -0.0 0.0 -1.0
 outer loop
  vertex 0.25 0.25 0.0
  vertex 0.125 0.125 0.0
  vertex 0.125 0.3749999999993359 0.0
 endloop
endfacet
facet normal 0.0 0.0 -1.0
 outer loop
  vertex 0.125 0.125 0.0
  vertex 0.0 0.2499999999994083 0.0
  vertex 0.125 0.3749999999993359 0.0
 endloop
endfacet
facet normal -0.0 0.0 -1.0
 outer loop
  vertex 0.125 0.125 0.0
  vertex 0.0 0.0 0.0
  vertex 0.0 0.2499999999994083 0.0
 endloop
endfacet
facet normal -0.0 0.0 -1.0
 outer loop
  vertex 0.125 0.3749999999993359 0.0
  vertex 0.0 0.2499999999994083 0.0
  vertex 0.0 0.4999999999986718 0.0
 endloop
endfacet
facet normal 0.0 0.0 -1.0
 outer loop
  vertex 0.5000000000013305 0.0 0.0
  vertex 0.2500000000006652 0.0 0.0
  vertex 0.3750000000006652 0.125 0.0
 endloop
endfacet
facet normal 0.0 0.0 -1.0
 outer loop
  vertex 0.2500000000006652 0.0 0.0
  vertex 0.125 0.125 0.0
  vertex 0.3750000000006652 0.125 0.0
 endloop
endfacet
facet normal 0.0 0.0 -1.0
 outer loop
  vertex 0.2500000000006652 0.0 0.0
  vertex 0.0 0.0 0.0
  vertex 0.125 0.125 0.0
 endloop
endfacet
facet normal 0.0 0.0 -1.0
 outer loop
  vertex 0.3750000000006652 0.125 0.0
  vertex 0.125 0.125 0.0
  vertex 0.25 0.25 0.0
 endloop
endfacet
facet normal 0.0 0.0 -1.0
 outer loop
  vertex 0.75 0.75 0.0
  vertex 0.6249999999993359 0.875 0.0
  vertex 0.875 0.875 0.0
 endloop
endfacet
facet normal 0.0 0.0 -1.0
 outer loop
  vertex 0.6249999999993359 0.875 0.0
  vertex 0.7499999999993359 1.0 0.0
  vertex 0.875 0.875 0.0
 endloop
endfacet
facet normal 0.0 0.0 -1.0
 outer loop
  vertex 0.6249999999993359 0.875 0.0
  vertex 0.4999999999986718 1.0 0.0
  vertex 0.7499999999993359 1.0 0.0
 endloop
endfacet
facet normal 0.0 0.0 -1.0
 outer loop
  vertex 0.875 0.875 0.0
  vertex 0.7499999999993359 1.0 0.0
  vertex 1.0 1.0 0.0
 endloop
endfacet
facet normal 0.0 -0.0 -1.0
 outer loop
  vertex 1.0 1.0 0.0
  vertex 1.0 0.7499999999993359 0.0
  vertex 0.875 0.875 0.0
 endloop
endfacet
facet normal -0.0 0.0 -1.0
 outer loop
  vertex 1.0 0.7499999999993359 0.0
  vertex 0.875 0.6249999999993359 0.0
  vertex 0.875 0.875 0.0
 endloop
endfacet
facet normal 0.0 -0.0 -1.0
 outer loop
  vertex 1.0 0.7499999999993359 0.0
  vertex 1.0 0.4999999999986718 0.0
  vertex 0.875 0.6249999999993359 0.0
 endloop
endfacet
facet normal 0.0 -0.0 -1.0
 outer loop
  vertex 0.875 0.875 0.0
  vertex 0.875 0.6249999999993359 0.0
  vertex 0.75 0.75 0.0
 endloop
endfacet
facet normal -0.0 0.0 -1.0
 outer loop
  vertex 1.0 0.4999999999986718 0.0
  vertex 0.875 0.3749999999993359 0.0
  vertex 0.875 0.6249999999993359 0.0
 endloop
endfacet
facet normal 0.0 0.0 -1.0
 outer loop
  vertex 0.875 0.3749999999993359 0.0
  vertex 0.75 0.5 0.0
  vertex 0.875 0.6249999999993359 0.0
 endloop
endfacet
facet normal -0.0 0.0 -1.0
 outer loop
  vertex 0.875 0.3749999999993359 0.0
  vertex 0.75 0.25 0.0
  vertex 0.75 0.5 0.0
 endloop
endfacet
facet normal -0.0 0.0 -1.0
 outer loop
  vertex 0.875 0.6249999999993359 0.0
  vertex 0.75 0.5 0.0
  vertex 0.75 0.75 0.0
 endloop
endfacet
facet normal 0.0 -0.0 -1.0
 outer loop
  vertex 0.75 0.75 0.0
  vertex 0.75 0.5 0.0
  vertex 0.625 0.625 0.0
 endloop
endfacet
facet normal -0.0 0.0 -1.0
 outer loop
  vertex 0.75 0.5 0.0
  vertex 0.625 0.375 0.0
  vertex 0.625 0.625 0.0
 endloop
endfacet
facet normal 0.0 -0.0 -1.0
 outer loop
  vertex 0.75 0.5 0.0
  vertex 0.75 0.25 0.0
  vertex 0.625 0.375 0.0
 endloop
endfacet
facet normal 0.0 -0.0 -1.0
 outer loop
  vertex 0.625 0.625 0.0
  vertex 0.625 0.375 0.0
  vertex 0.5 0.5 0.0
 endloop
endfacet
facet normal 0.0 0.0 -1.0
 outer loop
  vertex 0.5000000000013305 0.0 0.0
  vertex 0.3750000000006652 0.125 0.0
  vertex 0.6250000000006652 0.125 0.0
 endloop
endfacet
facet normal 0.0 0.0 -1.0
 outer loop
  vertex 0.3750000000006652 0.125 0.0
  vertex 0.5 0.25 0.0
  vertex 0.6250000000006652 0.125 0.0
 endloop
endfacet
facet normal 0.0 0.0 -1.0
 outer loop
  vertex 0.3750000000006652 0.125 0.0
  vertex 0.25 0.25 0.0
  vertex 0.5 0.25 0.0
 endloop
endfacet
facet normal 0.0 0.0 -1.0
 outer loop
  vertex 0.6250000000006652 0.125 0.0
  vertex 0.5 0.25 0.0
  vertex 0.75 0.25 0.0
 endloop
endfacet
facet normal 0.0 0.0 -1.0
 outer loop
  vertex 0.75 0.25 0.0
  vertex 0.5 0.25 0.0
  vertex 0.625 0.375 0.0
 endloop
endfacet
facet normal 0.0 0.0 -1.0
 outer loop
  vertex 0.5 0.25 0.0
  vertex 0.375 0.375 0.0
  vertex 0.625 0.375 0.0
 endloop
endfacet
facet normal 0.0 0.0 -1.0
 outer loop
  vertex 0.5 0.25 0.0
  vertex 0.25 0.25 0.0
  vertex 0.375 0.375 0.0
 endloop
endfacet
facet normal 0.0 0.0 -1.0
 outer loop
  vertex 0.625 0.375 0.0
  vertex 0.375 0.375 0.0
  vertex 0.5 0.5 0.0
 endloop
endfacet
facet normal 0.0 0.0 -1.0
 outer loop
  vertex 0.25 0.75 0.0
  vertex 0.3749999999993359 0.875 0.0
  vertex 0.5 0.75 0.0
 endloop
endfacet
facet normal 0.0 0.0 -1.0
 outer loop
  vertex 0.3749999999993359 0.875 0.0
  vertex 0.6249999999993359 0.875 0.0
  vertex 0.5 0.75 0.0
 endloop
endfacet
facet normal 0.0 0.0 -1.0
 outer loop
  vertex 0.3749999999993359 0.875 0.0
  vertex 0.4999999999986718 1.0 0.0
  vertex 0.6249999999993359 0.875 0.0
 endloop
endfacet
facet normal 0.0 0.0 -1.0
 outer loop
  vertex 0.5 0.75 0.0
  vertex 0.6249999999993359 0.875 0.0
  vertex 0.75 0.75 0.0
 endloop
endfacet
facet normal 0.0 0.0 -1.0
 outer loop
  vertex 0.5 0.5 0.0
  vertex 0.375 0.625 0.0
  vertex 0.625 0.625 0.0
 endloop
endfacet
facet normal 0.0 0.0 -1.0
 outer loop
  vertex 0.375 0.625 0.0
  vertex 0.5 0.75 0.0
  vertex 0.625 0.625 0.0
 endloop
endfacet
facet normal 0.0 0.0 -1.0
 outer loop
  vertex 0.375 0.625 0.0
  vertex 0.25 0.75 0.0
  vertex 0.5 0.75 0.0
 endloop
endfacet
facet normal 0.0 0.0 -1.0
 outer loop
  vertex 0.625 0.625 0.0
  vertex 0.5 0.75 0.0
  vertex 0.75 0.75 0.0
 endloop
endfacet
facet normal 0.0 0.0 -1.0
 outer loop
  vertex 0.25 0.25 0.0
  vertex 0.125 0.3749999999993359 0.0
  vertex 0.25 0.5 0.0
 endloop
endfacet
facet normal 0.0 0.0 -1.0
 outer loop
  vertex 0.125 0.3749999999993359 0.0
  vertex 0.125 0.6249999999993359 0.0
  vertex 0.25 0.5 0.0
 endloop
endfacet
facet normal 0.0 0.0 -1.0
 outer loop
  vertex 0.125 0.3749999999993359 0.0
  vertex 0.0 0.4999999999986718 0.0
  vertex 0.125 0.6249999999993359 0.0
 endloop
endfacet
facet normal 0.0 0.0 -1.0
 outer loop
  vertex 0.25 0.5 0.0
  vertex 0.125 0.6249999999993359 0.0
  vertex 0.25 0.75 0.0
 endloop
endfacet
facet normal -0.0 0.0 -1.0
 outer loop
  vertex 0.5 0.5 0.0
  vertex 0.375 0.375 0.0
  vertex 0.375 0.625 0.0
 endloop
endfacet
facet normal 0.0 0.0 -1.0
 outer loop
  vertex 0.375 0.375 0.0
  vertex 0.25 0.5 0.0
  vertex 0.375 0.625 0.0
 endloop
endfacet
facet normal -0.0 0.0 -1.0
 outer loop
  vertex 0.375 0.375 0.0
  vertex 0.25 0.25 0.0
  vertex 0.25 0.5 0.0
 endloop
endfacet
facet normal -0.0 0.0 -1.0
 outer loop
  vertex 0.375 0.625 0.0
  vertex 0.25 0.5 0.0
  vertex 0.25 0.75 0.0
 endloop
endfacet
endsolid
