solid
facet normal 0.0 1.0 0.0
 outer loop
  vertex 0.0 1.0 0.0
  vertex 0.25 1.0 0.25
  vertex 0.4999999999986718 1.0 0.0
 endloop
endfacet
facet normal -0.0 1.0 0.0
 outer loop
  vertex 0.25 1.0 0.25
  vertex 0.75 1.0 0.25
  vertex 0.4999999999986718 1.0 0.0
 endloop
endfacet
facet normal 0.0 1.0 0.0
 outer loop
  vertex 0.25 1.0 0.25
  vertex 0.5 1.0 0.5
  vertex 0.75 1.0 0.25
 endloop
endfacet
facet normal 0.0 1.0 0.0
 outer loop
  vertex 0.4999999999986718 1.0 0.0
  vertex 0.75 1.0 0.25
  vertex 1.0 1.0 0.0
 endloop
endfacet
facet normal 0.0 1.0 0.0
 outer loop
  vertex 0.0 1.0 0.0
  vertex 0.0 1.0 0.4999999999986718
  vertex 0.25 1.0 0.25
 endloop
endfacet
facet normal -0.0 1.0 0.0
 outer loop
  vertex 0.0 1.0 0.4999999999986718
  vertex 0.25 1.0 0.75
  vertex 0.25 1.0 0.25
 endloop
endfacet
facet normal 0.0 1.0 0.0
 outer loop
  vertex 0.0 1.0 0.4999999999986718
  vertex 0.0 1.0 1.0
  vertex 0.25 1.0 0.75
 endloop
endfacet
facet normal 0.0 1.0 0.0
 outer loop
  vertex 0.25 1.0 0.25
  vertex 0.25 1.0 0.75
  vertex 0.5 1.0 0.5
 endloop
endfacet
facet normal 0.0 1.0 -0.0
 outer loop
  vertex 1.0 1.0 0.0
  vertex 0.75 1.0 0.25
  vertex 1.0 1.0 0.4999999999986718
 endloop
endfacet
facet normal 0.0 1.0 0.0
 outer loop
  vertex 0.75 1.0 0.25
  vertex 0.75 1.0 0.75
  vertex 1.0 1.0 0.4999999999986718
 endloop
endfacet
facet normal 0.0 1.0 -0.0
 outer loop
  vertex 0.75 1.0 0.25
  vertex 0.5 1.0 0.5
  vertex 0.75 1.0 0.75
 endloop
endfacet
facet normal 0.0 1.0 -0.0
 outer loop
  vertex 1.0 1.0 0.4999999999986718
  vertex 0.75 1.0 0.75
  vertex 1.0 1.0 1.0
 endloop
endfacet
facet normal -0.0 1.0 0.0
 outer loop
  vertex 0.0 1.0 1.0
  vertex 0.4999999999986718 1.0 1.0
  vertex 0.25 1.0 0.75
 endloop
endfacet
facet normal 0.0 1.0 0.0
 outer loop
  vertex 0.4999999999986718 1.0 1.0
  vertex 0.75 1.0 0.75
  vertex 0.25 1.0 0.75
 endloop
endfacet
facet normal -0.0 1.0 0.0
 outer loop
  vertex 0.4999999999986718 1.0 1.0
  vertex 1.0 1.0 1.0
  vertex 0.75 1.0 0.75
 endloop
endfacet
facet normal -0.0 1.0 0.0
 outer loop
  vertex 0.25 1.0 0.75
  vertex 0.75 1.0 0.75
  vertex 0.5 1.0 0.5
 endloop
endfacet
facet normal 1.0 0.0 0.0
 outer loop
  vertex 1.0 0.0 0.0
  vertex 1.0 0.4999999999986718 0.0
  vertex 1.0 0.25 0.25
 endloop
endfacet
facet normal 1.0 0.0 -0.0
 outer loop
  vertex 1.0 0.4999999999986718 0.0
  vertex 1.0 0.75 0.25
  vertex 1.0 0.25 0.25
 endloop
endfacet
facet normal 1.0 0.0 0.0
 outer loop
  vertex 1.0 0.4999999999986718 0.0
  vertex 1.0 1.0 0.0
  vertex 1.0 0.75 0.25
 endloop
endfacet
facet normal 1.0 0.0 0.0
 outer loop
  vertex 1.0 0.25 0.25
  vertex 1.0 0.75 0.25
  vertex 1.0 0.5 0.5
 endloop
endfacet
facet normal 1.0 0.0 0.0
 outer loop
  vertex 1.0 0.0 0.0
  vertex 1.0 0.25 0.25
  vertex 1.0 0.0 0.5000000000013305
 endloop
endfacet
facet normal 1.0 0.0 -0.0
 outer loop
  vertex 1.0 0.25 0.25
  vertex 1.0 0.25 0.75
  vertex 1.0 0.0 0.5000000000013305
 endloop
endfacet
facet normal 1.0 0.0 0.0
 outer loop
  vertex 1.0 0.25 0.25
  vertex 1.0 0.5 0.5
  vertex 1.0 0.25 0.75
 endloop
endfacet
facet normal 1.0 0.0 0.0
 outer loop
  vertex 1.0 0.0 0.5000000000013305
  vertex 1.0 0.25 0.75
  vertex 1.0 0.0 1.0
 endloop
endfacet
facet normal 1.0 0.0 -0.0
 outer loop
  vertex 1.0 1.0 0.0
  vertex 1.0 1.0 0.4999999999986718
  vertex 1.0 0.75 0.25
 endloop
endfacet
facet normal 1.0 0.0 0.0
 outer loop
  vertex 1.0 1.0 0.4999999999986718
  vertex 1.0 0.75 0.75
  vertex 1.0 0.75 0.25
 endloop
endfacet
facet normal 1.0 0.0 -0.0
 outer loop
  vertex 1.0 1.0 0.4999999999986718
  vertex 1.0 1.0 1.0
  vertex 1.0 0.75 0.75
 endloop
endfacet
facet normal 1.0 0.0 -0.0
 outer loop
  vertex 1.0 0.75 0.25
  vertex 1.0 0.75 0.75
  vertex 1.0 0.5 0.5
 endloop
endfacet
facet normal 1.0 -0.0 0.0
 outer loop
  vertex 1.0 0.0 1.0
  vertex 1.0 0.25 0.75
  vertex 1.0 0.5000000000013305 1.0
 endloop
endfacet
facet normal 1.0 0.0 0.0
 outer loop
  vertex 1.0 0.25 0.75
  vertex 1.0 0.75 0.75
  vertex 1.0 0.5000000000013305 1.0
 endloop
endfacet
facet normal 1.0 -0.0 0.0
 outer loop
  vertex 1.0 0.25 0.75
  vertex 1.0 0.5 0.5
  vertex 1.0 0.75 0.75
 endloop
endfacet
facet normal 1.0 -0.0 0.0
 outer loop
  vertex 1.0 0.5000000000013305 1.0
  vertex 1.0 0.75 0.75
  vertex 1.0 1.0 1.0
 endloop
endfacet
facet normal 0.0 -1.0 0.0
 outer loop
  vertex 0.0 0.0 0.0
  vertex 0.25 0.0 0.25
  vertex 0.0 0.0 0.4999999999986718
 endloop
endfacet
facet normal 0.0 -1.0 0.0
 outer loop
  vertex 0.25 0.0 0.25
  vertex 0.25 0.0 0.75
  vertex 0.0 0.0 0.4999999999986718
 endloop
endfacet
facet normal 0.0 -1.0 0.0
 outer loop
  vertex 0.25 0.0 0.25
  vertex 0.5 0.0 0.5
  vertex 0.25 0.0 0.75
 endloop
endfacet
facet normal 0.0 -1.0 0.0
 outer loop
  vertex 0.0 0.0 0.4999999999986718
  vertex 0.25 0.0 0.75
  vertex 0.0 0.0 1.0
 endloop
endfacet
facet normal 0.0 -1.0 0.0
 outer loop
  vertex 0.0 0.0 0.0
  vertex 0.5000000000013305 0.0 0.0
  vertex 0.25 0.0 0.25
 endloop
endfacet
facet normal 0.0 -1.0 0.0
 outer loop
  vertex 0.5000000000013305 0.0 0.0
  vertex 0.75 0.0 0.25
  vertex 0.25 0.0 0.25
 endloop
endfacet
facet normal 0.0 -1.0 0.0
 outer loop
  vertex 0.5000000000013305 0.0 0.0
  vertex 1.0 0.0 0.0
  vertex 0.75 0.0 0.25
 endloop
endfacet
facet normal 0.0 -1.0 0.0
 outer loop
  vertex 0.25 0.0 0.25
  vertex 0.75 0.0 0.25
  vertex 0.5 0.0 0.5
 endloop
endfacet
facet normal 0.0 -1.0 0.0
 outer loop
  vertex 0.0 0.0 1.0
  vertex 0.25 0.0 0.75
  vertex 0.5000000000013305 0.0 1.0
 endloop
endfacet
facet normal 0.0 -1.0 0.0
 outer loop
  vertex 0.25 0.0 0.75
  vertex 0.75 0.0 0.75
  vertex 0.5000000000013305 0.0 1.0
 endloop
endfacet
facet normal 0.0 -1.0 0.0
 outer loop
  vertex 0.25 0.0 0.75
  vertex 0.5 0.0 0.5
  vertex 0.75 0.0 0.75
 endloop
endfacet
facet normal 0.0 -1.0 0.0
 outer loop
  vertex 0.5000000000013305 0.0 1.0
  vertex 0.75 0.0 0.75
  vertex 1.0 0.0 1.0
 endloop
endfacet
facet normal 0.0 -1.0 0.0
 outer loop
  vertex 1.0 0.0 0.0
  vertex 1.0 0.0 0.5000000000013305
  vertex 0.75 0.0 0.25
 endloop
endfacet
facet normal -0.0 -1.0 0.0
 outer loop
  vertex 1.0 0.0 0.5000000000013305
  vertex 0.75 0.0 0.75
  vertex 0.75 0.0 0.25
 endloop
endfacet
facet normal 0.0 -1.0 0.0
 outer loop
  vertex 1.0 0.0 0.5000000000013305
  vertex 1.0 0.0 1.0
  vertex 0.75 0.0 0.75
 endloop
endfacet
facet normal 0.0 -1.0 0.0
 outer loop
  vertex 0.75 0.0 0.25
  vertex 0.75 0.0 0.75
  vertex 0.5 0.0 0.5
 endloop
endfacet
facet normal 1.0 0.0 0.0
 outer loop
  vertex 0.0 0.0 0.0
  vertex 0.0 0.25 0.25
  vertex 0.0 0.0 0.4999999999986718
 endloop
endfacet
facet normal 1.0 0.0 -0.0
 outer loop
  vertex 0.0 0.25 0.25
  vertex 0.0 0.25 0.75
  vertex 0.0 0.0 0.4999999999986718
 endloop
endfacet
facet normal 1.0 0.0 0.0
 outer loop
  vertex 0.0 0.25 0.25
  vertex 0.0 0.5 0.5
  vertex 0.0 0.25 0.75
 endloop
endfacet
facet normal 1.0 0.0 0.0
 outer loop
  vertex 0.0 0.0 0.4999999999986718
  vertex 0.0 0.25 0.75
  vertex 0.0 0.0 1.0
 endloop
endfacet
facet normal 1.0 0.0 0.0
 outer loop
  vertex 0.0 0.0 0.0
  vertex 0.0 0.4999999999986718 0.0
  vertex 0.0 0.25 0.25
 endloop
endfacet
facet normal 1.0 0.0 -0.0
 outer loop
  vertex 0.0 0.4999999999986718 0.0
  vertex 0.0 0.75 0.25
  vertex 0.0 0.25 0.25
 endloop
endfacet
facet normal 1.0 0.0 0.0
 outer loop
  vertex 0.0 0.4999999999986718 0.0
  vertex 0.0 1.0 0.0
  vertex 0.0 0.75 0.25
 endloop
endfacet
facet normal 1.0 0.0 0.0
 outer loop
  vertex 0.0 0.25 0.25
  vertex 0.0 0.75 0.25
  vertex 0.0 0.5 0.5
 endloop
endfacet
facet normal 1.0 -0.0 0.0
 outer loop
  vertex 0.0 0.0 1.0
  vertex 0.0 0.25 0.75
  vertex 0.0 0.5000000000013305 1.0
 endloop
endfacet
facet normal 1.0 0.0 0.0
 outer loop
  vertex 0.0 0.25 0.75
  vertex 0.0 0.75 0.75
  vertex 0.0 0.5000000000013305 1.0
 endloop
endfacet
facet normal 1.0 -0.0 0.0
 outer loop
  vertex 0.0 0.25 0.75
  vertex 0.0 0.5 0.5
  vertex 0.0 0.75 0.75
 endloop
endfacet
facet normal 1.0 -0.0 0.0
 outer loop
  vertex 0.0 0.5000000000013305 1.0
  vertex 0.0 0.75 0.75
  vertex 0.0 1.0 1.0
 endloop
endfacet
facet normal 1.0 0.0 -0.0
 outer loop
  vertex 0.0 1.0 0.0
  vertex 0.0 1.0 0.4999999999986718
  vertex 0.0 0.75 0.25
 endloop
endfacet
facet normal 1.0 0.0 0.0
 outer loop
  vertex 0.0 1.0 0.4999999999986718
  vertex 0.0 0.75 0.75
  vertex 0.0 0.75 0.25
 endloop
endfacet
facet normal 1.0 0.0 -0.0
 outer loop
  vertex 0.0 1.0 0.4999999999986718
  vertex 0.0 1.0 1.0
  vertex 0.0 0.75 0.75
 endloop
endfacet
facet normal 1.0 0.0 -0.0
 outer loop
  vertex 0.0 0.75 0.25
  vertex 0.0 0.75 0.75
  vertex 0.0 0.5 0.5
 endloop
endfacet
facet normal 0.0 0.0 -1.0
 outer loop
  vertex 0.0 0.0 1.0
  vertex 0.25 0.25 1.0
  vertex 0.5000000000013305 0.0 1.0
 endloop
endfacet
facet normal 0.0 0.0 -1.0
 outer loop
  vertex 0.25 0.25 1.0
  vertex 0.75 0.25 1.0
  vertex 0.5000000000013305 0.0 1.0
 endloop
endfacet
facet normal 0.0 0.0 -1.0
 outer loop
  vertex 0.25 0.25 1.0
  vertex 0.5 0.5 1.0
  vertex 0.75 0.25 1.0
 endloop
endfacet
facet normal 0.0 0.0 -1.0
 outer loop
  vertex 0.5000000000013305 0.0 1.0
  vertex 0.75 0.25 1.0
  vertex 1.0 0.0 1.0
 endloop
endfacet
facet normal 0.0 0.0 -1.0
 outer loop
  vertex 0.0 0.0 1.0
  vertex 0.0 0.5000000000013305 1.0
  vertex 0.25 0.25 1.0
 endloop
endfacet
facet normal 0.0 0.0 -1.0
 outer loop
  vertex 0.0 0.5000000000013305 1.0
  vertex 0.25 0.75 1.0
  vertex 0.25 0.25 1.0
 endloop
endfacet
facet normal 0.0 0.0 -1.0
 outer loop
  vertex 0.0 0.5000000000013305 1.0
  vertex 0.0 1.0 1.0
  vertex 0.25 0.75 1.0
 endloop
endfacet
facet normal 0.0 0.0 -1.0
 outer loop
  vertex 0.25 0.25 1.0
  vertex 0.25 0.75 1.0
  vertex 0.5 0.5 1.0
 endloop
endfacet
facet normal 0.0 0.0 -1.0
 outer loop
  vertex 1.0 0.0 1.0
  vertex 0.75 0.25 1.0
  vertex 1.0 0.5000000000013305 1.0
 endloop
endfacet
facet normal 0.0 0.0 -1.0
 outer loop
  vertex 0.75 0.25 1.0
  vertex 0.75 0.75 1.0
  vertex 1.0 0.5000000000013305 1.0
 endloop
endfacet
facet normal 0.0 0.0 -1.0
 outer loop
  vertex 0.75 0.25 1.0
  vertex 0.5 0.5 1.0
  vertex 0.75 0.75 1.0
 endloop
endfacet
facet normal 0.0 0.0 -1.0
 outer loop
  vertex 1.0 0.5000000000013305 1.0
  vertex 0.75 0.75 1.0
  vertex 1.0 1.0 1.0
 endloop
endfacet
facet normal 0.0 0.0 -1.0
 outer loop
  vertex 0.0 1.0 1.0
  vertex 0.4999999999986718 1.0 1.0
  vertex 0.25 0.75 1.0
 endloop
endfacet
facet normal 0.0 -0.0 -1.0
 outer loop
  vertex 0.4999999999986718 1.0 1.0
  vertex 0.75 0.75 1.0
  vertex 0.25 0.75 1.0
 endloop
endfacet
facet normal 0.0 0.0 -1.0
 outer loop
  vertex 0.4999999999986718 1.0 1.0
  vertex 1.0 1.0 1.0
  vertex 0.75 0.75 1.0
 endloop
endfacet
facet normal 0.0 0.0 -1.0
 outer loop
  vertex 0.25 0.75 1.0
  vertex 0.75 0.75 1.0
  vertex 0.5 0.5 1.0
 endloop
endfacet
facet normal 0.0 0.0 -1.0
 outer loop
  vertex 0.0 0.0 0.0
  vertex 0.0 0.4999999999986718 0.0
  vertex 0.25 0.25 0.0
 endloop
endfacet
facet normal 0.0 0.0 -1.0
 outer loop
  vertex 0.0 0.4999999999986718 0.0
  vertex 0.25 0.75 0.0
  vertex 0.25 0.25 0.0
 endloop
endfacet
facet normal 0.0 0.0 -1.0
 outer loop
  vertex 0.0 0.4999999999986718 0.0
  vertex 0.0 1.0 0.0
  vertex 0.25 0.75 0.0
 endloop
endfacet
facet normal 0.0 0.0 -1.0
 outer loop
  vertex 0.25 0.25 0.0
  vertex 0.25 0.75 0.0
  vertex 0.5 0.5 0.0
 endloop
endfacet
facet normal 0.0 0.0 -1.0
 outer loop
  vertex 0.0 0.0 0.0
  vertex 0.25 0.25 0.0
  vertex 0.5000000000013305 0.0 0.0
 endloop
endfacet
facet normal 0.0 0.0 -1.0
 outer loop
  vertex 0.25 0.25 0.0
  vertex 0.75 0.25 0.0
  vertex 0.5000000000013305 0.0 0.0
 endloop
endfacet
facet normal 0.0 0.0 -1.0
 outer loop
  vertex 0.25 0.25 0.0
  vertex 0.5 0.5 0.0
  vertex 0.75 0.25 0.0
 endloop
endfacet
facet normal 0.0 0.0 -1.0
 outer loop
  vertex 0.5000000000013305 0.0 0.0
  vertex 0.75 0.25 0.0
  vertex 1.0 0.0 0.0
 endloop
endfacet
facet normal 0.0 0.0 -1.0
 outer loop
  vertex 0.0 1.0 0.0
  vertex 0.4999999999986718 1.0 0.0
  vertex 0.25 0.75 0.0
 endloop
endfacet
facet normal 0.0 -0.0 -1.0
 outer loop
  vertex 0.4999999999986718 1.0 0.0
  vertex 0.75 0.75 0.0
  vertex 0.25 0.75 0.0
 endloop
endfacet
facet normal 0.0 0.0 -1.0
 outer loop
  vertex 0.4999999999986718 1.0 0.0
  vertex 1.0 1.0 0.0
  vertex 0.75 0.75 0.0
 endloop
endfacet
facet normal 0.0 0.0 -1.0
 outer loop
  vertex 0.25 0.75 0.0
  vertex 0.75 0.75 0.0
  vertex 0.5 0.5 0.0
 endloop
endfacet
facet normal 0.0 0.0 -1.0
 outer loop
  vertex 1.0 0.0 0.0
  vertex 0.75 0.25 0.0
  vertex 1.0 0.4999999999986718 0.0
 endloop
endfacet
facet normal 0.0 0.0 -1.0
 outer loop
  vertex 0.75 0.25 0.0
  vertex 0.75 0.75 0.0
  vertex 1.0 0.4999999999986718 0.0
 endloop
endfacet
facet normal 0.0 0.0 -1.0
 outer loop
  vertex 0.75 0.25 0.0
  vertex 0.5 0.5 0.0
  vertex 0.75 0.75 0.0
 endloop
endfacet
facet normal 0.0 0.0 -1.0
 outer loop
  vertex 1.0 0.4999999999986718 0.0
  vertex 0.75 0.75 0.0
  vertex 1.0 1.0 0.0
 endloop
endfacet
endsolid
