solid
facet normal 0.5773502691896258 0.5773502691896258 0.5773502691896258
 outer loop
  vertex 0.4999999999983159 0.0 0.5000000000016841
  vertex 1.0 0.0 0.0
  vertex 0.5000000000016841 0.4999999999983159 0.0
 endloop
endfacet
facet normal 0.5773502691896258 0.5773502691896258 0.5773502691896258
 outer loop
  vertex 0.0 0.0 1.0
  vertex 0.4999999999983159 0.0 0.5000000000016841
  vertex 0.0 0.5000000000016841 0.4999999999983159
 endloop
endfacet
facet normal 0.5773502691896258 0.5773502691896258 0.5773502691896258
 outer loop
  vertex 0.4999999999983159 0.0 0.5000000000016841
  vertex 0.5000000000016841 0.4999999999983159 0.0
  vertex 0.0 0.5000000000016841 0.4999999999983159
 endloop
endfacet
facet normal 0.5773502691896258 0.5773502691896258 0.5773502691896258
 outer loop
  vertex 0.0 0.5000000000016841 0.4999999999983159
  vertex 0.5000000000016841 0.4999999999983159 0.0
  vertex 0.0 1.0 0.0
 endloop
endfacet
facet normal 1.0 0.0 0.0
 outer loop
  vertex 0.0 1.0 0.0
  vertex 0.0 0.5000000000016841 0.4999999999983159
  vertex 0.0 0.0 0.0
 endloop
endfacet
facet normal 1.0 0.0 0.0
 outer loop
  vertex 0.0 0.0 0.0
  vertex 0.0 0.5000000000016841 0.4999999999983159
  vertex 0.0 0.0 1.0
 endloop
endfacet
facet normal 0.0 1.0 0.0
 outer loop
  vertex 0.4999999999983159 0.0 0.5000000000016841
  vertex 1.0 0.0 0.0
  vertex 0.0 0.0 0.0
 endloop
endfacet
facet normal 0.0 1.0 0.0
 outer loop
  vertex 0.0 0.0 1.0
  vertex 0.4999999999983159 0.0 0.5000000000016841
  vertex 0.0 0.0 0.0
 endloop
endfacet
facet normal 0.0 0.0 1.0
 outer loop
  vertex 1.0 0.0 0.0
  vertex 0.5000000000016841 0.4999999999983159 0.0
  vertex 0.0 0.0 0.0
 endloop
endfacet
facet normal 0.0 0.0 1.0
 outer loop
  vertex 0.0 0.0 0.0
  vertex 0.5000000000016841 0.4999999999983159 0.0
  vertex 0.0 1.0 0.0
 endloop
endfacet
endsolid
